<?xml version="1.0" encoding="UTF-8"?>
<svg id="a" data-name="Layer 1" xmlns="http://www.w3.org/2000/svg" viewBox="0 0 200 200">
  <defs>
    <style>
      .b, .c {
        stroke-width: 0px;
      }

      .c {
        fill: #eaf143;
      }
    </style>
  </defs>
  <circle class="b" cx="100" cy="100" r="100"/>
  <path class="c" d="m140.7,144.15c6.36-4.39,10.15-11.63,10.13-19.36,0,5.11-6.57,7.19-9.53,3.12h0c-1.52-1.98-.95-4.76-.82-7.07.38-4.55,1.71-8.69,3.34-12.82,2.48-7.72.98-16.77-3.85-23.24,1.94,7.55-4.79,14.71-12.39,13.57-11.46-1-18.7-13.38-14.1-23.82h0c.42-.99.94-1.93,1.54-2.83,4.87-7.55,5.61-18.21,1.8-26.44-1.27-2.84-3-5.46-5.11-7.74-4.06-4.52-6.29-11.07-5.56-17.46-4.03,6.56-4.43,15.85-1,22.73.87,1.57,1.5,3.26,1.88,5.01,1.08,4.87-.16,10.35-3,14.2-6.9,9.97-22.46,3.58-20.22-8.46-3.54,4.8-4.38,11.98-1.93,17.6.47,1.15,1.22,2.2,1.69,3.35,1.66,3.7,2.33,7.76,1.95,11.79-.11,1.29-.33,2.56-.67,3.81-.02.12-.07.24-.09.36-.03,0-.06.02-.09.03-4.09,8.56-16.85,7.04-18.71-2.38-1.38-7.28-7.09-12.96-14.37-14.31,4.84,2.95,7.54,9.4,5.97,15.12-1.16,4.63-1.75,9.39-1.74,14.17,0,1.7.07,3.38.22,5.05.4,4.65,1.36,9.24,2.86,13.65,1,2.11,1.06,4.79-.64,6.51h0c-1.8,2.02-5.14,2.26-7.19.5h0c-.51-.43-.94-.96-1.26-1.54-.12-.22-.23-.45-.32-.69-.21-.57-.32-1.18-.32-1.8-.02,7.76,3.79,15.03,10.18,19.44,1.09.83,1.41,2.32.77,3.53-2.43,4.44,0,10.43,4.65,12.03,5.31-6.83,16.45-4.24,18.2,4.25v.05c.36,2.2,1.93,4.02,4.06,4.68h.03c1.61-3.84,7.34-2.55,7.13,1.61.62.08,1.25.15,1.88.2-.32-5.47,7.69-5.47,7.37,0,.85-.07,1.69-.17,2.52-.3-.14-3.99,5.37-5.31,7.06-1.7h.02c1.69-.58,3-1.93,3.53-3.63.43-1.4.7-2.88,1.5-4.08,3.54-6.15,12.7-6.75,16.99-1.06,4.49-1.61,6.82-6.56,5.2-11.04-.15-.41-.32-.81-.53-1.19-.54-1.22-.14-2.65.95-3.42Zm-79.07,1.5s-.02-.05-.03-.07c.02,0,.05.02.07.03-.01.01-.03.03-.04.04Zm20.29-2.76c-17.1,0-8.7-18.92-18.92-18.92,2.4-1.72,9.17-1.53,12.99,2.96s21.3,15.77,21.3,6.21c0,0,1.72,9.74-15.38,9.74Zm20.2,13.68s-.7-3.79-2.36-3.79-2.36,3.79-2.36,3.79c0,0-3.43-.2-3.43-4.37s3.95-9.9,3.95-9.9c.16,1.08.87,1.64,1.83,1.64s1.67-.56,1.83-1.64c0,0,3.95,5.75,3.95,9.9s-3.42,4.37-3.42,4.37Zm15.95-13.68c-17.1,0-15.38-9.74-15.38-9.74,0,9.55,17.48-1.72,21.3-6.21s10.61-4.68,12.99-2.96c-10.22,0-1.82,18.92-18.92,18.92Z"/>
</svg>