<svg width="638" height="638" viewBox="0 0 638 638" fill="none" xmlns="http://www.w3.org/2000/svg">
<mask id="mask0_2877_129920" style="mask-type:alpha" maskUnits="userSpaceOnUse" x="0" y="0" width="638" height="638">
<path d="M319.001 637.69C495.008 637.69 637.691 495.008 637.691 319C637.691 142.992 495.008 0.310059 319.001 0.310059C142.993 0.310059 0.310547 142.992 0.310547 319C0.310547 495.008 142.993 637.69 319.001 637.69Z" fill="#002FA7"/>
</mask>
<g mask="url(#mask0_2877_129920)">
<path d="M319.001 637.69C495.008 637.69 637.691 495.008 637.691 319C637.691 142.992 495.008 0.310059 319.001 0.310059C142.993 0.310059 0.310547 142.992 0.310547 319C0.310547 495.008 142.993 637.69 319.001 637.69Z" fill="#002FA7"/>
<path d="M478.79 452.82L470.62 454.18H470C469.4 454.34 468.79 454.34 468.19 454.49L466.07 454.79C358.91 472.35 268.25 474.62 189.07 461.9C167.73 458.42 136.4 452.52 109.61 441.02C78.0002 427.39 60.0002 408.93 56.2102 386.07C46.6702 330.22 129.47 285.42 156.71 270.74C229.06 231.54 318.21 203.39 429.15 184.62C540.09 165.85 633.63 163 714.76 176.15C767.76 184.77 839.17 201.88 847.64 251.97C856.11 302.06 794.37 341.73 747.14 367.31C676.61 405.45 590.34 433.15 483.33 451.91L481.21 452.22C480.61 452.37 480 452.37 479.4 452.52C479.1 452.82 478.94 452.82 478.79 452.82V452.82ZM469.56 449.82H469.86L478.19 448.31H478.34C478.94 448.16 479.55 448.16 480.16 448.01L482.27 447.71C588.68 429.09 674.49 401.54 744.72 363.55C851.88 305.55 845.07 265.93 842.95 252.91C834.17 200.24 743.66 185.56 713.95 180.91C633.28 167.91 540.34 170.62 429.86 189.38C319.38 208.14 230.86 236.15 158.78 275.05C51.6702 333 58.4802 372.6 60.6002 385.62C69.5302 438.29 160.04 452.82 189.71 457.67C268.41 470.38 358.62 468.11 465.32 450.55L467.44 450.25C468.05 450.1 468.65 450.1 469.26 449.95L469.56 449.82Z" fill="white"/>
<path d="M470.921 431.48C468.801 431.78 466.531 432.24 464.111 432.54C459.571 433.3 454.421 434.05 448.821 434.96L448.221 435.11C445.801 435.42 443.221 435.87 440.501 436.17C438.081 436.48 435.501 436.93 432.781 437.23H432.331C428.241 437.84 423.851 438.29 419.461 438.9H418.861L413.261 439.5C411.741 439.65 410.081 439.81 408.561 440.11H408.261C373.901 443.89 341.211 446.16 311.261 446.62C256.781 447.37 213.031 442.38 181.551 431.78C151.431 421.64 132.211 406.2 124.641 385.92C123.342 382.44 122.381 378.844 121.771 375.18C119.041 359.28 122.981 343.54 133.421 328.56C147.951 307.67 175.501 287.69 215.301 269.38C252.541 252.13 299.761 236.54 355.461 222.91C390.721 214.29 419.031 209.14 432.801 206.91C446.731 204.49 475.481 200.1 511.201 196.47C550.561 192.53 608.071 188.9 659.081 193.89C702.821 198.13 735.511 207.97 756.081 223.26C770.461 234 779.241 247.32 781.821 263.21C782.441 267.014 782.692 270.868 782.571 274.72C781.971 296.36 769.101 317.1 744.431 336.32C718.251 356.75 678.591 375.97 626.681 393.23C597.921 402.76 566.291 411.39 532.531 419.11C531.387 419.433 530.225 419.687 529.051 419.87L517.401 422.44C514.401 423.05 511.501 423.65 508.621 424.26L505.741 424.86C504.081 425.16 502.571 425.47 500.901 425.77C499.231 426.07 497.421 426.53 495.601 426.83L492.731 427.43C487.131 428.49 481.981 429.43 477.441 430.31C475.311 430.72 473.001 431.18 470.921 431.48V431.48ZM418.551 434.48H419.311C423.551 434.02 427.791 433.42 431.871 432.81H432.331C434.901 432.51 437.471 432.06 440.051 431.75C442.631 431.44 445.341 431 447.771 430.69L448.371 430.54C453.971 429.63 458.971 428.88 463.511 428.27C468.351 427.52 472.131 426.91 476.981 426C481.521 425.25 486.661 424.19 492.261 423.13L495.141 422.52C496.801 422.22 498.621 421.92 500.291 421.46C501.801 421.16 503.461 420.86 504.981 420.55L507.851 419.95C510.731 419.34 513.601 418.74 516.631 418.13L528.291 415.56C529.501 415.26 530.561 415.1 531.771 414.8C565.371 407.23 596.851 398.46 625.461 389.07C676.921 371.97 716.121 353.07 741.851 332.92C765.461 314.45 777.721 294.92 778.321 274.65C778.452 271.1 778.2 267.546 777.571 264.05C775.151 249.4 767.001 237 753.501 227C733.501 212.32 701.741 202.63 658.751 198.55C608.051 193.7 550.841 197.18 511.751 201.12C476.031 204.6 447.421 209.12 433.651 211.41C419.881 213.7 391.571 218.98 356.651 227.41C302.011 240.73 253.731 256.63 217.251 273.58C178.201 291.58 151.251 310.96 137.181 331.24C127.501 345.17 123.871 359.85 126.291 374.53C126.871 377.944 127.782 381.293 129.011 384.53C136.131 403.6 154.291 418.13 183.201 427.82C214.201 438.26 257.361 443.1 311.391 442.35C341.391 441.89 373.901 439.78 408.111 435.84H408.411C409.985 435.727 411.551 435.523 413.101 435.23L418.551 434.48Z" fill="white"/>
<path d="M294.001 387.14L293.551 386.98H293.121L293.551 391.22C294.911 391.07 296.121 391.07 297.481 390.92C301.031 390.648 304.595 390.592 308.151 390.75C303.368 389.827 298.643 388.622 294.001 387.14ZM343.461 394.37L343.961 394.26L343.461 394.37ZM345.141 394.11H345.001V394.37L345.301 394.31L345.141 394.11ZM781.651 263.48C779.071 247.59 770.291 234.27 755.921 223.48C735.331 208.19 702.641 198.36 658.921 194.12C607.921 189.12 550.401 192.76 511.041 196.69C475.321 200.32 446.571 204.69 432.641 207.13C418.871 209.4 390.571 214.55 355.301 223.18C299.601 236.8 252.381 252.39 215.151 269.64C175.321 288 147.771 308 133.241 328.86C122.801 343.86 118.861 359.59 121.591 375.48C122.052 378.23 122.721 380.941 123.591 383.59C123.871 384.49 124.181 385.36 124.491 386.23L125.141 387.88C133.141 407.34 152.141 422.22 181.401 432.09C212.891 442.68 256.631 447.68 311.111 446.92H312.001L312.611 446.16C320.461 437.85 328.911 429.26 337.371 421.93C337.541 421.78 337.721 421.64 337.881 421.49L342.581 417.41H335.301C294.891 417.8 262.301 414.18 238.491 406.41L238.281 406.35L238.561 406.24C259.471 397.83 276.801 393.16 292.771 391.36H292.861C304.531 395.01 318.861 397.36 335.591 398.36C325.759 397.84 315.975 396.63 306.311 394.74C304.551 394.38 302.841 394 301.161 393.6C300.461 393.44 299.771 393.26 299.071 393.09C297.071 392.54 295.121 391.98 293.241 391.39L292.791 391.29H292.641C289.781 390.37 287.051 389.35 284.501 388.29C268.921 390.87 251.761 396.09 231.501 404.63L226.571 406.75L226.251 406.89H226.201L231.501 408.89C255.261 417.82 288.711 422.36 330.791 422.21C323.681 428.57 316.871 435.68 310.361 442.49C256.781 443.25 214.101 438.25 183.221 427.96C155.361 418.62 137.481 404.79 129.851 386.72C129.255 385.314 128.721 383.883 128.251 382.43C127.41 379.899 126.762 377.308 126.311 374.68C123.891 360 127.521 345.32 137.211 331.4C151.281 311.11 178.211 291.74 217.271 273.73C253.751 256.73 302.031 240.89 356.671 227.57C391.671 219.09 419.941 213.79 433.671 211.57C447.401 209.35 476.051 204.76 511.771 201.28C550.771 197.35 608.031 193.86 658.771 198.71C701.771 202.79 733.541 212.48 753.511 227.16C766.981 237.16 775.161 249.56 777.581 264.24C778.214 267.736 778.469 271.29 778.341 274.84C777.731 295.12 765.471 314.65 741.861 333.11C716.281 353.11 677.381 372.01 626.381 388.96C617.901 384.57 608.821 380.03 599.741 376.1C639.241 362.17 669.361 347.04 689.341 330.99L693.731 327.36L692.821 327.31L688.021 326.9C659.871 325.08 638.831 326.59 622.021 331.44L621.561 331.59L621.111 331.89C611.271 338.89 598.561 345.66 583.271 351.89L581.151 352.65C576.909 354.378 572.621 355.992 568.291 357.49L565.561 358.4C565.578 358.235 565.605 358.072 565.641 357.91C565.821 356.85 565.971 355.79 566.091 354.74C566.894 348.678 567.229 342.563 567.091 336.45C567.091 335.45 567.021 334.51 566.961 333.55C566.901 332.59 566.861 331.55 566.781 330.61C566.701 329.67 566.621 328.61 566.531 327.61C566.441 326.61 566.311 325.61 566.181 324.61C566.001 323.29 565.801 321.97 565.571 320.61C565.341 319.25 565.031 317.98 564.771 316.68C564.651 316.01 564.511 315.36 564.361 314.68C562.083 304.348 558.31 294.403 553.161 285.16C551.414 282.006 549.508 278.942 547.451 275.98C546.821 275.07 546.181 274.15 545.521 273.25C544.861 272.35 544.401 271.72 543.821 270.98C543.241 270.24 542.571 269.38 541.931 268.59C534.829 259.908 526.474 252.332 517.141 246.11C509.791 241.16 501.862 237.13 493.531 234.11C476.258 227.866 457.719 225.943 439.531 228.51C437.758 228.691 435.995 228.968 434.251 229.34C434.091 229.326 433.929 229.353 433.781 229.42C415.743 233.012 398.856 240.959 384.591 252.57C378.022 257.807 372.116 263.825 367.001 270.49L366.561 271.04C363.125 275.515 360.023 280.238 357.281 285.17C356.741 286.17 356.211 287.17 355.711 288.17C355.281 288.95 354.891 289.76 354.511 290.57C354.131 291.38 353.851 291.93 353.511 292.63C352.01 295.941 350.675 299.325 349.511 302.77V302.85C349.191 303.77 348.891 304.71 348.581 305.63C348.271 306.55 348.021 307.49 347.751 308.43C347.551 309.14 347.341 309.87 347.161 310.6C347.141 310.739 347.108 310.877 347.061 311.01C346.98 311.242 346.913 311.479 346.861 311.72C346.691 312.35 346.541 313 346.391 313.65C346.361 313.723 346.341 313.801 346.331 313.88C346.339 313.95 346.321 314.021 346.281 314.08C346.161 314.59 346.061 315.08 345.951 315.61C345.841 316.14 345.751 316.53 345.661 317C345.471 318 345.281 319 345.121 319.94C344.741 322.13 344.411 324.33 344.121 326.52C344.031 327.26 343.961 328.02 343.901 328.77C343.811 329.77 343.731 330.77 343.671 331.77C343.385 336.258 343.368 340.76 343.621 345.25C343.721 347.05 343.851 348.87 344.051 350.67C344.067 351.065 344.107 351.459 344.171 351.85C344.351 353.12 344.531 354.33 344.711 355.53C344.761 355.79 344.791 356.04 344.841 356.29V356.42L344.931 357.03C344.921 357.079 344.921 357.13 344.931 357.18C344.954 357.425 344.991 357.669 345.041 357.91C345.111 358.44 345.201 358.91 345.311 359.48C346.284 364.694 347.621 369.833 349.311 374.86C351.566 381.583 354.477 388.067 358.001 394.22C358.591 395.22 359.221 396.31 359.851 397.37L360.521 398.46H359.731L354.271 398.72H354.521C355.811 398.72 357.071 398.72 358.311 398.65H361.811L365.741 398.5V398.45L363.651 395.17C363.431 394.81 363.201 394.44 362.991 394.06C356.134 382.696 351.473 370.145 349.251 357.06C348.941 355.06 348.641 353.27 348.491 351.3C348.371 350.24 348.261 349.19 348.171 348.13C347.35 338.933 347.763 329.667 349.401 320.58C352.337 303.481 359.409 287.359 370.001 273.62C371.471 271.76 373.001 269.93 374.571 268.16C378.453 263.73 382.697 259.632 387.261 255.91C400.975 244.821 417.182 237.237 434.481 233.81L434.921 233.74L437.201 233.36L439.931 232.9C457.42 230.439 475.245 232.311 491.841 238.35C499.789 241.212 507.361 245.026 514.391 249.71C537.391 264.94 553.609 288.475 559.651 315.39C559.951 317.21 560.411 319.03 560.711 320.99C561.584 325.993 562.089 331.053 562.221 336.13C562.382 344.079 561.681 352.022 560.131 359.82C560.099 360.158 560.039 360.492 559.951 360.82L559.191 364.76L562.981 363.54L564.541 363.01C566.231 362.44 567.851 361.85 569.541 361.27C574.081 359.76 578.321 358.1 582.541 356.43L584.661 355.67C600.001 349.3 612.891 342.49 623.001 335.37C638.131 331.13 657.201 329.62 681.421 330.68L681.241 330.82C660.961 346.06 631.051 360.39 592.421 373.51L586.521 375.51H586.581L592.271 377.75C592.439 377.806 592.603 377.873 592.761 377.95C603.775 382.373 614.538 387.397 625.001 393L625.911 393.45H626.521C678.431 376.2 718.091 356.98 744.271 336.54C768.941 317.32 781.811 296.54 782.411 274.94C782.529 271.104 782.274 267.266 781.651 263.48V263.48ZM345.121 394.13H345.001V394.39L345.301 394.33L345.121 394.13ZM343.981 394.33L343.451 394.43L343.981 394.33ZM343.791 398.83H344.001C344.851 398.83 345.711 398.89 346.591 398.9H348.591C346.821 398.9 345.051 398.8 343.401 398.72C342.958 398.728 342.513 398.712 342.071 398.67H341.341L343.791 398.83ZM293.101 387L293.531 391.24C294.891 391.09 296.101 391.09 297.461 390.94C301.011 390.668 304.575 390.611 308.131 390.77C303.354 389.842 298.635 388.63 294.001 387.14L293.551 386.98L293.101 387ZM293.981 387.16L293.531 387H293.101L293.531 391.24C294.891 391.09 296.101 391.09 297.461 390.94C301.011 390.668 304.575 390.611 308.131 390.77C303.354 389.842 298.635 388.63 294.001 387.14L293.981 387.16ZM343.441 394.41L343.941 394.3L343.441 394.41ZM345.121 394.15H345.001V394.41L345.301 394.35L345.121 394.15ZM345.131 394.14H345.001V394.4L345.301 394.34L345.131 394.14ZM343.451 394.39L343.951 394.28L343.451 394.39ZM294.001 387.14L293.551 386.98H293.121L293.551 391.22C294.911 391.07 296.121 391.07 297.481 390.92C301.031 390.648 304.595 390.592 308.151 390.75C303.368 389.827 298.643 388.622 294.001 387.14Z" fill="white"/>
<path d="M294.001 387.14L293.551 386.98H293.121L293.551 391.22C294.911 391.07 296.121 391.07 297.481 390.92C301.031 390.648 304.595 390.592 308.151 390.75C303.368 389.827 298.643 388.622 294.001 387.14ZM343.461 394.37L343.961 394.26L343.461 394.37ZM345.141 394.11H345.001V394.37L345.301 394.31L345.141 394.11ZM781.651 263.48C779.071 247.59 770.291 234.27 755.921 223.48C735.331 208.19 702.641 198.36 658.921 194.12C607.921 189.12 550.401 192.76 511.041 196.69C475.321 200.32 446.571 204.69 432.641 207.13C418.871 209.4 390.571 214.55 355.301 223.18C299.601 236.8 252.381 252.39 215.151 269.64C175.321 288 147.771 308 133.241 328.86C122.801 343.86 118.861 359.59 121.591 375.48C122.052 378.23 122.721 380.941 123.591 383.59C123.871 384.49 124.181 385.36 124.491 386.23L125.141 387.88C133.141 407.34 152.141 422.22 181.401 432.09C212.891 442.68 256.631 447.68 311.111 446.92H312.001L312.611 446.16C320.461 437.85 328.911 429.26 337.371 421.93C337.541 421.78 337.721 421.64 337.881 421.49L342.581 417.41H335.301C294.891 417.8 262.301 414.18 238.491 406.41L238.281 406.35L238.561 406.24C259.471 397.83 276.801 393.16 292.771 391.36H292.861C304.531 395.01 318.861 397.36 335.591 398.36C325.759 397.84 315.975 396.63 306.311 394.74C304.551 394.38 302.841 394 301.161 393.6C300.461 393.44 299.771 393.26 299.071 393.09C297.071 392.54 295.121 391.98 293.241 391.39L292.791 391.29H292.641C289.781 390.37 287.051 389.35 284.501 388.29C268.921 390.87 251.761 396.09 231.501 404.63L226.571 406.75L226.251 406.89H226.201L231.501 408.89C255.261 417.82 288.711 422.36 330.791 422.21C323.681 428.57 316.871 435.68 310.361 442.49C256.781 443.25 214.101 438.25 183.221 427.96C155.361 418.62 137.481 404.79 129.851 386.72C129.255 385.314 128.721 383.883 128.251 382.43C127.41 379.899 126.762 377.308 126.311 374.68C123.891 360 127.521 345.32 137.211 331.4C151.281 311.11 178.211 291.74 217.271 273.73C253.751 256.73 302.031 240.89 356.671 227.57C391.671 219.09 419.941 213.79 433.671 211.57C447.401 209.35 476.051 204.76 511.771 201.28C550.771 197.35 608.031 193.86 658.771 198.71C701.771 202.79 733.541 212.48 753.511 227.16C766.981 237.16 775.161 249.56 777.581 264.24C778.214 267.736 778.469 271.29 778.341 274.84C777.731 295.12 765.471 314.65 741.861 333.11C716.281 353.11 677.381 372.01 626.381 388.96C617.901 384.57 608.821 380.03 599.741 376.1C639.241 362.17 669.361 347.04 689.341 330.99L693.731 327.36L692.821 327.31L688.021 326.9C659.871 325.08 638.831 326.59 622.021 331.44L621.561 331.59L621.111 331.89C611.271 338.89 598.561 345.66 583.271 351.89L581.151 352.65C576.909 354.378 572.621 355.992 568.291 357.49L565.561 358.4C565.578 358.235 565.605 358.072 565.641 357.91C565.821 356.85 565.971 355.79 566.091 354.74C566.894 348.678 567.229 342.563 567.091 336.45C567.091 335.45 567.021 334.51 566.961 333.55C566.901 332.59 566.861 331.55 566.781 330.61C566.701 329.67 566.621 328.61 566.531 327.61C566.441 326.61 566.311 325.61 566.181 324.61C566.001 323.29 565.801 321.97 565.571 320.61C565.341 319.25 565.031 317.98 564.771 316.68C564.651 316.01 564.511 315.36 564.361 314.68C562.083 304.348 558.31 294.403 553.161 285.16C551.414 282.006 549.508 278.942 547.451 275.98C546.821 275.07 546.181 274.15 545.521 273.25C544.861 272.35 544.401 271.72 543.821 270.98C543.241 270.24 542.571 269.38 541.931 268.59C534.829 259.908 526.474 252.332 517.141 246.11C509.791 241.16 501.862 237.13 493.531 234.11C476.258 227.866 457.719 225.943 439.531 228.51C437.758 228.691 435.995 228.968 434.251 229.34C434.091 229.326 433.929 229.353 433.781 229.42C415.743 233.012 398.856 240.959 384.591 252.57C378.022 257.807 372.116 263.825 367.001 270.49L366.561 271.04C363.125 275.515 360.023 280.238 357.281 285.17C356.741 286.17 356.211 287.17 355.711 288.17C355.281 288.95 354.891 289.76 354.511 290.57C354.131 291.38 353.851 291.93 353.511 292.63C352.01 295.941 350.675 299.325 349.511 302.77V302.85C349.191 303.77 348.891 304.71 348.581 305.63C348.271 306.55 348.021 307.49 347.751 308.43C347.551 309.14 347.341 309.87 347.161 310.6C347.141 310.739 347.108 310.877 347.061 311.01C346.98 311.242 346.913 311.479 346.861 311.72C346.691 312.35 346.541 313 346.391 313.65C346.361 313.723 346.341 313.801 346.331 313.88C346.339 313.95 346.321 314.021 346.281 314.08C346.161 314.59 346.061 315.08 345.951 315.61C345.841 316.14 345.751 316.53 345.661 317C345.471 318 345.281 319 345.121 319.94C344.741 322.13 344.411 324.33 344.121 326.52C344.031 327.26 343.961 328.02 343.901 328.77C343.811 329.77 343.731 330.77 343.671 331.77C343.385 336.258 343.368 340.76 343.621 345.25C343.721 347.05 343.851 348.87 344.051 350.67C344.067 351.065 344.107 351.459 344.171 351.85C344.351 353.12 344.531 354.33 344.711 355.53C344.761 355.79 344.791 356.04 344.841 356.29V356.42L344.931 357.03C344.921 357.079 344.921 357.13 344.931 357.18C344.954 357.425 344.991 357.669 345.041 357.91C345.111 358.44 345.201 358.91 345.311 359.48C346.284 364.694 347.621 369.833 349.311 374.86C351.566 381.583 354.477 388.067 358.001 394.22C358.591 395.22 359.221 396.31 359.851 397.37L360.521 398.46H359.731L354.271 398.72H354.521C355.811 398.72 357.071 398.72 358.311 398.65H361.811L365.741 398.5V398.45L363.651 395.17C363.431 394.81 363.201 394.44 362.991 394.06C356.134 382.696 351.473 370.145 349.251 357.06C348.941 355.06 348.641 353.27 348.491 351.3C348.371 350.24 348.261 349.19 348.171 348.13C347.35 338.933 347.763 329.667 349.401 320.58C352.337 303.481 359.409 287.359 370.001 273.62C371.471 271.76 373.001 269.93 374.571 268.16C378.453 263.73 382.697 259.632 387.261 255.91C400.975 244.821 417.182 237.237 434.481 233.81L434.921 233.74L437.201 233.36L439.931 232.9C457.42 230.439 475.245 232.311 491.841 238.35C499.789 241.212 507.361 245.026 514.391 249.71C537.391 264.94 553.609 288.475 559.651 315.39C559.951 317.21 560.411 319.03 560.711 320.99C561.584 325.993 562.089 331.053 562.221 336.13C562.382 344.079 561.681 352.022 560.131 359.82C560.099 360.158 560.039 360.492 559.951 360.82L559.191 364.76L562.981 363.54L564.541 363.01C566.231 362.44 567.851 361.85 569.541 361.27C574.081 359.76 578.321 358.1 582.541 356.43L584.661 355.67C600.001 349.3 612.891 342.49 623.001 335.37C638.131 331.13 657.201 329.62 681.421 330.68L681.241 330.82C660.961 346.06 631.051 360.39 592.421 373.51L586.521 375.51H586.581L592.271 377.75C592.439 377.806 592.603 377.873 592.761 377.95C603.775 382.373 614.538 387.397 625.001 393L625.911 393.45H626.521C678.431 376.2 718.091 356.98 744.271 336.54C768.941 317.32 781.811 296.54 782.411 274.94C782.529 271.104 782.274 267.266 781.651 263.48V263.48ZM345.121 394.13H345.001V394.39L345.301 394.33L345.121 394.13ZM343.981 394.33L343.451 394.43L343.981 394.33ZM343.791 398.83H344.001C344.851 398.83 345.711 398.89 346.591 398.9H348.591C346.821 398.9 345.051 398.8 343.401 398.72C342.958 398.728 342.513 398.712 342.071 398.67H341.341L343.791 398.83ZM293.101 387L293.531 391.24C294.891 391.09 296.101 391.09 297.461 390.94C301.011 390.668 304.575 390.611 308.131 390.77C303.354 389.842 298.635 388.63 294.001 387.14L293.551 386.98L293.101 387ZM293.981 387.16L293.531 387H293.101L293.531 391.24C294.891 391.09 296.101 391.09 297.461 390.94C301.011 390.668 304.575 390.611 308.131 390.77C303.354 389.842 298.635 388.63 294.001 387.14L293.981 387.16ZM343.441 394.41L343.941 394.3L343.441 394.41ZM343.441 394.41L343.941 394.3L343.441 394.41ZM294.001 387.14L293.551 386.98H293.121L293.551 391.22C294.911 391.07 296.121 391.07 297.481 390.92C301.031 390.648 304.595 390.592 308.151 390.75C303.368 389.827 298.643 388.622 294.001 387.14Z" fill="white"/>
<path d="M343.81 394L343.02 394.12H342.85C340.07 394.03 337.33 393.91 334.67 393.74C331.276 393.54 327.99 393.273 324.81 392.94C319.53 392.42 314.55 391.723 309.87 390.85C304.403 389.878 299.008 388.542 293.72 386.85L293.26 386.7H292.81C289.9 387.02 286.95 387.44 283.94 387.97C268.62 390.58 251.82 395.74 231.94 403.97C211.43 396.22 198.52 384.97 193.49 370.5C193.22 369.71 192.96 368.91 192.73 368.09C192.5 367.27 192.37 366.69 192.22 365.99C192.02 365.05 191.86 364.13 191.68 363.25C189.56 350.84 192.89 338.58 201.51 326.93L202.12 326.17C213.92 310.73 235.12 295.9 265.39 282.17C281.752 274.84 298.516 268.44 315.6 263C334.28 256.92 354.76 251.21 376.48 246C386.14 243.7 394.98 241.66 403 240C403.39 239.91 403.78 239.83 404.18 239.76C397.169 243.314 390.57 247.626 384.5 252.62C377.868 257.913 371.911 263.998 366.76 270.74C366.67 270.84 366.58 270.97 366.49 271.09C365.04 272.96 363.66 274.89 362.36 276.85C356.906 284.954 352.555 293.748 349.42 303C349.1 303.92 348.8 304.86 348.49 305.78C348.18 306.7 347.93 307.64 347.66 308.58C347.54 308.987 347.43 309.407 347.33 309.84C347.25 310.14 347.16 310.44 347.07 310.75C347.049 310.889 347.016 311.027 346.97 311.16C346.888 311.392 346.821 311.629 346.77 311.87C346.6 312.5 346.45 313.15 346.3 313.8C346.269 313.873 346.249 313.951 346.24 314.03C346.247 314.1 346.229 314.171 346.19 314.23C346.07 314.74 345.97 315.23 345.86 315.76C345.75 316.29 345.66 316.68 345.57 317.15C345.549 317.309 345.515 317.466 345.47 317.62C345.3 318.39 345.16 319.16 345.03 319.93C344.63 322.16 344.32 324.41 344.03 326.67C343.94 327.41 343.87 328.17 343.81 328.92C343.72 329.92 343.64 330.92 343.58 331.92C343.293 336.408 343.276 340.91 343.53 345.4C343.64 347.2 343.78 349 343.97 350.81C343.98 351.146 344.017 351.48 344.08 351.81C344.26 353.13 344.46 354.38 344.64 355.62C344.626 355.761 344.654 355.904 344.72 356.03C344.806 356.65 344.896 357.26 344.99 357.86C345.2 359.21 345.44 360.56 345.73 361.86C345.743 361.992 345.767 362.122 345.8 362.25C345.97 363 346.14 363.74 346.3 364.46C346.99 367.35 347.74 370.08 348.56 372.68C348.77 373.39 349 374.09 349.23 374.79C349.46 375.49 349.8 376.45 350.1 377.28C350.4 378.11 350.71 378.95 351.04 379.78C351.69 381.43 352.37 383.08 353.1 384.71C353.42 385.41 353.72 386.11 354.05 386.79C354.38 387.47 354.7 388.14 355.05 388.79C355.956 390.65 356.936 392.477 357.99 394.27C358.58 395.32 359.21 396.36 359.84 397.42L360.51 398.51H359.72L354.26 398.77H354.51C355.8 398.77 357.06 398.77 358.3 398.7H362.08L366.02 398.55L364.08 395.27C363.85 394.91 363.62 394.54 363.4 394.16C356.546 382.739 351.892 370.135 349.68 357C349.38 355 349.07 353.21 348.92 351.24C348.79 350.09 348.67 348.94 348.57 347.79C347.793 338.684 348.216 329.515 349.83 320.52C352.771 303.437 359.839 287.331 370.42 273.6C371.55 272.16 372.72 270.75 373.91 269.36C389.619 250.927 411.13 238.384 434.91 233.79V233.72L434.18 229.48V229.4C432 229.78 429.36 230.25 426.29 230.81C409.353 233.94 392.501 237.507 375.75 241.51C331.41 252.11 293.87 264.37 263.9 277.99C233.48 291.91 211.68 306.9 199.42 322.79L198.82 323.55C188.98 336.55 185.2 350.18 187.62 364.11C187.77 365.05 187.97 365.94 188.18 366.83C188.39 367.72 188.6 368.53 188.83 369.41C189.01 370.04 189.21 370.68 189.42 371.31C194.32 386.31 206.7 398.12 226.24 406.49C226.348 406.55 226.462 406.6 226.58 406.64C228.17 407.32 229.82 407.97 231.51 408.64L232.42 408.94L233.18 408.64C234.99 407.88 236.78 407.14 238.53 406.43L238.82 406.32C259.62 397.97 276.82 393.23 292.9 391.41H293.11C295.04 392.02 297.03 392.58 299.11 393.11C297.11 392.56 295.16 392 293.28 391.41L292.83 391.31H292.68C289.82 390.39 287.09 389.37 284.54 388.31C287.46 387.81 290.323 387.403 293.13 387.09L293.56 391.33C294.92 391.18 296.13 391.18 297.49 391.03C301.04 390.758 304.603 390.702 308.16 390.86C314.389 392.07 320.678 392.955 327 393.51C329.63 393.77 332.35 393.97 335.14 394.13C337.93 394.29 340.59 394.42 343.4 394.51H343.55L344.05 394.4L344.63 394.33L345.07 394.25V394.51L345.37 394.45V394.51H347C349.46 394.51 351.91 394.64 354.26 394.64H358L357.91 394.49H353.91C351.59 394.49 349.17 394.38 346.72 394.35H345.72L345.28 394.26H345L343.81 394ZM344 399L346.53 399.09H348.53C346.76 399.09 344.99 398.99 343.34 398.91C342.896 398.918 342.452 398.902 342.01 398.86H341.63L344 399ZM343.69 394.17L343.99 394.27L343.69 394.17ZM357.79 394.59H353.79C351.47 394.59 349.05 394.48 346.6 394.45H345.6L345.16 394.36H344.86V394.66L345.16 394.6V394.66H346.83C349.29 394.66 351.74 394.79 354.09 394.79H358L357.79 394.59ZM559.46 364.88L560.22 360.95C561.889 352.836 562.65 344.562 562.49 336.28C562.359 331.204 561.861 326.144 561 321.14C560.7 319.14 560.24 317.36 559.94 315.54C553.897 288.625 537.679 265.09 514.68 249.86C507.649 245.177 500.077 241.362 492.13 238.5C475.533 232.461 457.708 230.589 440.22 233.05L439.46 228.67C449.75 227 471.25 223.67 498.46 221.1C529.18 218.1 574.29 215.35 614.85 218.98H615.15C649.06 221.98 674.79 229.12 691.89 240.17L692.65 240.62C706.12 249.55 714.14 260.9 716.41 274.68C716.753 276.68 716.957 278.702 717.02 280.73C717.62 298.14 708.24 315.09 689.02 330.83L688.27 331.44H687.36C660.42 329.77 639.36 331.13 623.03 335.82C612.89 342.94 600.03 349.75 584.59 356.11L582.47 356.86C578.23 358.53 574 360.19 569.47 361.71C567.36 362.46 565.24 363.22 562.97 363.98L559.46 364.88ZM470.92 228.36C478.607 229.457 486.162 231.333 493.47 233.96C501.804 236.98 509.736 241.01 517.09 245.96C532.03 255.922 544.373 269.311 553.09 285.01C558.234 294.252 562.007 304.192 564.29 314.52C564.74 316.52 565.05 318.46 565.5 320.43C566.369 325.621 566.87 330.868 567 336.13C567.172 343.474 566.667 350.819 565.49 358.07L568.21 357.17C572.6 355.65 576.99 353.99 581.08 352.32L583.2 351.57C598.48 345.36 611.2 338.57 621.04 331.57L621.49 331.26L621.94 331.11C638.59 326.27 659.33 324.91 687.03 326.57C704.58 311.89 713.21 296.45 712.61 280.71C712.547 278.831 712.343 276.959 712 275.11C709.88 262.85 702.77 252.56 690.81 244.39L690.21 243.93C673.86 233.19 648.58 226.22 615.13 223.05H614.83C574.57 219.41 529.62 222.14 498.89 225.16C488.63 226.24 479.25 227.3 470.92 228.36V228.36Z" fill="white"/>
<path d="M345.292 394.25V394.34L345.732 394.25H345.292ZM357.912 394.4H353.912C351.592 394.4 349.172 394.29 346.722 394.26L346.952 394.42C349.412 394.42 351.862 394.55 354.212 394.55H358.002L357.912 394.4ZM344.111 394.08L343.111 394.23H343.002C340.222 394.14 337.511 394.02 334.861 393.85C331.811 393.68 328.862 393.46 325.992 393.17C319.838 392.59 314.092 391.783 308.752 390.75C303.676 389.809 298.665 388.543 293.752 386.96L293.292 386.81H293.162L292.842 386.7C277.052 381.45 266.342 373.46 260.952 362.86C260.422 361.855 259.951 360.82 259.542 359.76C259.332 359.23 259.122 358.69 258.922 358.13C258.263 356.245 257.761 354.308 257.422 352.34C256.062 345.08 258.482 337.66 264.542 330.09C268.772 324.72 274.832 319.32 282.622 313.88C291.703 307.719 301.24 302.26 311.152 297.55C327.66 289.634 344.642 282.747 362.002 276.93L362.331 276.81C360.471 279.58 358.732 282.42 357.142 285.34C356.602 286.34 356.072 287.34 355.572 288.34C355.142 289.12 354.752 289.93 354.372 290.74C353.992 291.55 353.712 292.1 353.372 292.8C351.87 296.111 350.535 299.495 349.372 302.94V303C349.052 303.92 348.752 304.86 348.442 305.78C348.132 306.7 347.881 307.64 347.611 308.58C347.411 309.29 347.201 310.02 347.021 310.75C347.001 310.889 346.968 311.027 346.922 311.16C346.84 311.392 346.773 311.629 346.722 311.87C346.552 312.5 346.402 313.15 346.252 313.8C346.221 313.873 346.201 313.951 346.192 314.03C346.199 314.1 346.181 314.171 346.142 314.23C346.022 314.74 345.922 315.23 345.812 315.76C345.702 316.29 345.542 317 345.422 317.62C345.302 318.24 345.112 319.16 344.982 319.93C344.582 322.16 344.272 324.41 343.982 326.67C343.892 327.41 343.822 328.17 343.762 328.92C343.672 329.92 343.592 330.92 343.532 331.92C343.262 336.409 343.262 340.911 343.532 345.4C343.642 347.2 343.782 349 343.972 350.81C343.982 351.146 344.019 351.48 344.081 351.81C344.261 353.13 344.462 354.38 344.642 355.62C344.628 355.761 344.656 355.904 344.722 356.03C344.808 356.65 344.898 357.26 344.992 357.86C345.202 359.21 345.442 360.56 345.732 361.86C345.745 361.991 345.769 362.122 345.801 362.25C345.971 363 346.141 363.74 346.301 364.46C346.991 367.35 347.742 370.08 348.562 372.68C348.772 373.39 349.002 374.09 349.232 374.79C349.462 375.49 349.802 376.45 350.102 377.28C350.402 378.11 350.712 378.95 351.042 379.78C351.692 381.43 352.372 383.08 353.102 384.71C353.422 385.41 353.721 386.11 354.051 386.79C354.381 387.47 354.701 388.14 355.051 388.79C355.965 390.65 356.945 392.477 357.992 394.27C358.582 395.27 359.212 396.36 359.842 397.42L360.512 398.51H359.722L354.262 398.77H354.512C355.802 398.77 357.061 398.77 358.301 398.7H359.782C359.811 398.69 359.842 398.69 359.872 398.7H362.002L365.942 398.55V398.5L364.152 395.37C363.882 394.95 363.622 394.52 363.382 394.1C359.462 387.575 356.269 380.641 353.861 373.42C352.051 368.095 350.683 362.63 349.771 357.08C349.471 355.08 349.172 353.29 349.012 351.33C347.803 341.097 348.11 330.743 349.922 320.6C352.863 303.517 359.931 287.411 370.512 273.68L373.852 269.29L374.852 267.93L374.422 268.07L367.972 270.27L366.902 270.63L366.732 270.68L366.372 270.8C355.705 274.34 345.705 277.947 336.372 281.62C326.592 285.48 317.592 289.417 309.372 293.43C286.372 304.48 270.022 315.83 261.092 327.18C254.282 335.81 251.552 344.58 253.092 353.06C253.413 354.749 253.83 356.418 254.342 358.06C254.672 359.187 255.062 360.295 255.512 361.38C255.692 361.83 255.891 362.28 256.081 362.74C260.851 373.51 270.142 381.94 283.872 387.92L284.081 388.01L284.432 388.17C287.352 387.67 290.215 387.263 293.021 386.95L293.452 391.19C294.812 391.04 296.022 391.04 297.382 390.89C300.932 390.618 304.495 390.561 308.051 390.72C314.265 391.928 320.536 392.813 326.842 393.37C329.472 393.63 332.192 393.83 334.982 393.99C337.772 394.15 340.432 394.28 343.242 394.37H343.392L343.892 394.26L344.472 394.19L344.912 394.11L344.111 394.08ZM357.912 394.52L357.822 394.37H353.822C351.502 394.37 349.082 394.26 346.632 394.23L346.861 394.39C349.321 394.39 351.772 394.52 354.122 394.52H357.912ZM345.202 394.31L345.642 394.22H345.202V394.31ZM344.002 398.81H344.062L346.592 398.9H348.592C346.822 398.9 345.052 398.8 343.402 398.72C342.958 398.728 342.514 398.712 342.072 398.67H341.692L344.002 398.81ZM357.852 394.4H353.852C351.532 394.4 349.112 394.29 346.662 394.26H345.002V394.41L345.301 394.35V394.41H347.002C349.462 394.41 351.912 394.54 354.262 394.54H358.002L357.852 394.4ZM559.462 364.88L560.221 360.95C561.891 352.836 562.652 344.562 562.491 336.28C562.361 331.204 561.863 326.144 561.001 321.14C560.701 319.14 560.241 317.36 559.941 315.54C553.899 288.625 537.681 265.09 514.681 249.86L508.681 245.77L515.941 245.62C536.514 245.291 557.088 246.199 577.551 248.34C602.971 251.34 622.042 256.51 634.462 264.08C644.142 269.83 649.741 277.08 651.101 285.57C651.554 288.473 651.709 291.415 651.561 294.35C650.801 309.03 641.422 322.81 623.712 335.35L623.262 335.65C613.262 342.77 600.262 349.43 584.962 355.78L582.842 356.54C578.612 358.21 574.372 359.87 569.842 361.38C567.722 362.14 565.602 362.9 563.332 363.65L559.462 364.88ZM522.842 250C535.261 259.429 545.572 271.351 553.111 285C558.256 294.242 562.029 304.182 564.311 314.51C564.761 316.51 565.072 318.45 565.522 320.42C566.384 325.615 566.878 330.865 567.001 336.13C567.174 343.474 566.669 350.819 565.491 358.07L568.212 357.17C572.602 355.65 576.992 353.99 581.082 352.32L583.202 351.57C598.482 345.36 611.201 338.57 621.041 331.57L621.491 331.26C637.691 319.61 646.311 307.05 646.921 294.03C647.073 291.447 646.919 288.856 646.462 286.31C645.252 279.2 640.461 273.14 631.931 268C620.131 260.88 601.662 255.89 576.842 252.86C558.908 250.907 540.881 249.952 522.842 250V250Z" fill="white"/>
<path d="M357.91 394.4H353.91C351.59 394.4 349.17 394.29 346.72 394.26L346.95 394.42C349.41 394.42 351.86 394.55 354.21 394.55H358L357.91 394.4ZM366 398.59L364.21 395.46C363.94 395.04 363.68 394.61 363.44 394.19C359.521 387.666 356.328 380.731 353.92 373.51C352.11 368.185 350.742 362.72 349.83 357.17C349.53 355.17 349.23 353.38 349.07 351.42L348.62 347.78H348.57L348.15 348.06L345.59 349.72C345.05 350.08 344.5 350.43 343.97 350.8L343.88 350.86C339.987 353.478 336.345 356.451 333 359.74C327.37 365.37 324.63 371 324.8 376.37V377.15C324.83 378.431 325.032 379.703 325.4 380.93C325.51 381.34 325.65 381.75 325.78 382.16C326.736 384.902 328.225 387.427 330.16 389.59C331.501 391.11 332.992 392.491 334.61 393.71C334.672 393.771 334.743 393.822 334.82 393.86L335 394.01C337.69 394.18 340.45 394.3 343.26 394.39H343.38L343.08 394.23L342.79 394.1C342.703 394.04 342.609 393.99 342.51 393.95L341.9 393.49H341.75C341.3 393.25 340.86 392.99 340.42 392.72C337.233 390.944 334.44 388.538 332.21 385.65C330.946 383.968 330.022 382.056 329.49 380.02C329.43 379.63 329.35 379.19 329.29 378.75C329.23 378.31 329.13 377.59 329.04 376.99C328.58 372.76 331.04 368.06 335.85 363.07C338.519 360.374 341.421 357.918 344.52 355.73C344.5 355.876 344.5 356.024 344.52 356.17C344.51 356.293 344.51 356.417 344.52 356.54V356.67L344.61 357.28C344.6 357.33 344.6 357.381 344.61 357.43C344.631 357.623 344.667 357.814 344.72 358C344.93 359.35 345.17 360.7 345.46 362C345.474 362.132 345.497 362.262 345.53 362.39C345.7 363.14 345.87 363.88 346.03 364.6C346.72 367.49 347.47 370.22 348.29 372.82C348.5 373.53 348.73 374.23 348.96 374.93C349.19 375.63 349.53 376.59 349.83 377.42C350.13 378.25 350.44 379.09 350.77 379.92C351.42 381.57 352.1 383.22 352.83 384.85C353.15 385.55 353.45 386.25 353.78 386.93C354.11 387.61 354.43 388.28 354.78 388.93C355.694 390.79 356.674 392.617 357.72 394.41C358.31 395.41 358.94 396.5 359.57 397.56L360.24 398.65H359.45L353.99 398.91H354.24C355.53 398.91 356.79 398.91 358.03 398.84H361.81L365.75 398.69L366 398.59ZM358 394.59L357.91 394.44H353.91C351.59 394.44 349.17 394.33 346.72 394.3L346.95 394.46C349.41 394.46 351.86 394.59 354.21 394.59H358ZM357.91 394.44H353.91C351.59 394.44 349.17 394.33 346.72 394.3H345.72L345.28 394.39V394.45H347C349.46 394.45 351.91 394.58 354.26 394.58H358L357.91 394.44ZM559.46 364.88L560.22 360.95C561.89 352.836 562.651 344.562 562.49 336.28C562.36 331.204 561.862 326.144 561 321.14C560.7 319.14 560.24 317.36 559.94 315.54L559.18 311.91L562.81 312.82C567.686 313.97 572.438 315.591 577 317.66C585.18 321.45 590 326.29 591.38 331.89C591.53 332.65 591.68 333.4 591.83 334.31C592.89 341.73 590.17 348.99 583.51 355.95L583.21 356.26L582.75 356.41C578.52 358.07 574.28 359.74 569.75 361.25C567.63 362.01 565.51 362.77 563.24 363.52L559.46 364.88ZM565.07 318.12L565.52 320.39C566.383 325.596 566.877 330.855 567 336.13C567.173 343.474 566.668 350.819 565.49 358.07L568.21 357.17C572.45 355.65 576.54 354.17 580.62 352.47C585.92 346.57 588.19 340.67 587.44 334.92C587.28 334.31 587.28 333.71 587.13 332.92C586.07 328.68 581.99 324.92 575.13 321.72C571.87 320.275 568.507 319.072 565.07 318.12V318.12ZM653.76 407.26C646.95 404.39 638.76 400.15 630.15 395.76L625.15 393.19L627.27 389.25L632.27 391.83C640.89 396.22 648.92 400.45 655.58 403.18L653.76 407.26Z" fill="white"/>
<path d="M585.351 355.35L582.471 351.87C593.662 342.738 606.51 335.852 620.311 331.59C620.772 331.462 621.226 331.309 621.671 331.13L622.731 335.52C622.431 335.67 621.971 335.67 621.671 335.82C608.434 339.966 596.108 346.594 585.351 355.35V355.35Z" fill="white"/>
<path d="M570.67 360.65L567 357.92C574.72 347.92 581.38 340.06 587.74 333.1C607.11 312.1 626.18 299.05 647.83 292.1L648.28 291.95C666.75 286.05 688.39 281.51 714.42 278.33C736.42 275.61 758.77 273.94 780.26 272.43L782.53 272.28C804.53 270.76 825.06 269.28 844.74 266.68L845.34 271.22C825.52 273.79 804.78 275.3 782.83 276.82L780.56 276.97C759.07 278.48 736.82 280.15 714.88 282.87C689.15 286.05 667.65 290.44 649.49 296.34L649.04 296.49C628.3 303.15 609.84 315.87 590.92 336.3C584.89 342.94 578.38 350.81 570.67 360.65V360.65Z" fill="white"/>
<path d="M566.581 337.49L562.791 335.07C566.881 328.71 570.511 323.26 574.001 318.42C592.161 293.14 610.171 276.04 631.061 264.54L631.361 264.39C631.629 264.262 631.883 264.108 632.121 263.93C648.011 255.15 667.231 247.43 690.541 240.02H690.691C710.521 233.81 730.341 228.82 754.111 222.91L755.471 222.61C774.991 217.77 793.471 213.23 811.021 207.93L812.381 212.17C794.821 217.47 776.211 222.17 756.681 227L755.321 227.3C731.561 233.21 711.731 238.2 691.901 244.41H691.751C668.751 251.67 649.821 259.41 634.081 268.02C633.781 268.17 633.631 268.32 633.481 268.32L633.171 268.47C613.041 279.67 595.341 296.32 577.631 321.14C574.301 325.84 570.671 331.28 566.581 337.49V337.49ZM553.111 287.09L549.171 284.82C555.864 272.77 563.942 261.544 573.241 251.37C574.001 250.61 574.751 249.7 575.511 248.95C585.351 238.81 597.911 228.95 613.651 218.95L614.101 218.65C627.881 209.9 642.711 202 657.851 194L660.121 192.78C672.381 186.28 684.031 180.22 694.781 174.02L697.051 177.95C686.151 184.31 674.491 190.36 662.231 196.87L660.001 198.09C644.721 206.09 629.881 213.98 616.111 222.76L615.661 223.07C600.221 232.75 588.111 242.29 578.581 252.13L576.311 254.4C567.512 264.5 559.74 275.45 553.111 287.09V287.09ZM494.841 237L490.601 235.34C492.261 231.25 494.231 227.16 496.601 222.02C500.691 213.69 505.231 205.37 509.471 197.65L510.981 195.07C514.771 188.07 518.851 181 522.331 174.07L526.421 176.07C522.941 183.07 518.851 190.3 515.071 197.26L513.551 199.84C509.321 207.56 504.781 215.73 500.691 224.05C498.321 229 496.351 233.05 494.841 237V237ZM384.351 255.76C381.351 252.28 377.991 248.95 374.351 245.31C368.141 239.11 361.631 233.36 354.351 226.85L352.351 225.18C345.991 219.43 339.941 214.18 334.191 208.54L337.371 205.36C342.971 210.81 349.021 216.25 355.371 221.85L357.371 223.52C364.631 230.03 371.141 235.93 377.501 242.14C381.131 245.77 384.501 249.25 387.641 252.73L384.351 255.76ZM623.001 335.37C612.861 342.49 600.001 349.3 584.551 355.65L582.431 356.41C578.201 358.08 573.961 359.74 569.431 361.25C567.791 361.83 566.171 362.42 564.431 362.99C563.911 363.18 563.431 363.34 562.871 363.52L559.081 364.74L559.841 360.8C559.901 360.47 559.981 360.15 560.021 359.8C555.361 361.34 550.311 362.88 544.861 364.56C535.171 367.44 524.731 370.16 513.221 372.89C501.335 375.736 489.374 378.26 477.351 380.46C471.751 381.52 466.751 382.427 462.351 383.18C458.111 383.79 452.971 384.69 447.211 385.6C434.211 387.72 422.541 389.39 411.491 390.6C399.691 391.96 388.491 393.02 377.891 393.6C373.061 393.88 368.101 394.03 363.351 394.15H362.851C363.061 394.53 363.291 394.9 363.511 395.26L365.601 398.54H366.001C368.831 398.47 371.631 398.35 374.401 398.21L378.601 397.98C389.201 397.38 400.551 396.32 412.341 394.98C423.391 393.77 435.041 392.1 448.211 389.98C450.651 389.66 452.984 389.327 455.211 388.98L459.021 388.35L460.401 388.1L463.401 387.59C467.791 386.83 472.931 385.92 478.531 384.87C491.101 382.6 503.201 380.02 514.711 377.3C519.841 376.1 524.711 374.88 529.451 373.62L529.711 373.56C535.611 372 541.211 370.41 546.641 368.82C552.551 367.16 557.991 365.34 563.141 363.68L564.491 363.21C566.261 362.62 567.951 362.01 569.651 361.41C574.191 359.89 578.431 358.23 582.651 356.56L584.771 355.81C600.211 349.45 613.081 342.64 623.221 335.52C638.281 331.3 657.221 329.79 681.311 330.82L681.491 330.68C657.231 329.62 638.161 331.13 623.001 335.37V335.37ZM344.111 394.08L343.111 394.23H343.001C340.221 394.14 337.511 394.02 334.861 393.85C331.811 393.68 328.861 393.46 325.991 393.17C319.838 392.59 314.091 391.783 308.751 390.75C303.675 389.809 298.665 388.543 293.751 386.96L293.291 386.81H292.841C290.011 387.13 287.131 387.52 284.201 388.02C268.641 390.63 251.511 395.83 231.261 404.37L226.261 406.49L225.931 406.64L226.281 406.78L231.281 408.61C256.281 417.99 291.671 422.53 336.621 421.93H337.471C350.551 421.77 364.641 421.18 379.151 420.13L381.731 419.98C382.631 419.83 383.731 419.83 384.731 419.68L385.941 419.53C392.001 419.07 397.941 418.62 403.651 418.01C407.131 417.71 410.461 417.26 413.651 416.95L420.161 416.2C423.041 415.89 425.911 415.44 428.641 415.14L429.391 414.98C438.471 413.927 447.251 412.717 455.731 411.35C460.271 410.75 464.051 410.14 467.231 409.54C470.411 408.94 474.341 408.33 478.131 407.42C486.993 405.762 495.824 403.945 504.621 401.97C507.621 401.36 510.671 400.76 513.851 399.97L520.051 398.46C522.931 397.7 525.811 397.09 528.831 396.34C534.281 395.13 539.831 393.61 545.631 392.1L549.111 391.19C550.481 390.89 551.691 390.44 553.051 390.13L553.501 389.98C567.221 386.11 580.501 382.08 592.891 377.92C593.081 377.84 593.271 377.78 593.461 377.72H593.611C636.141 363.34 668.081 347.45 688.811 330.5L692.901 327.12L693.201 326.87L687.451 326.56C659.301 324.75 638.261 326.26 621.451 331.1L621.001 331.26L620.541 331.56C610.711 338.56 597.991 345.33 582.701 351.56L580.591 352.31C576.501 353.98 572.111 355.64 567.721 357.16L565.721 357.88H565.661C564.231 358.38 562.831 358.88 561.401 359.4L560.221 359.78C555.561 361.32 550.511 362.86 545.061 364.54C535.371 367.42 524.931 370.14 513.421 372.87C501.535 375.715 489.574 378.24 477.551 380.44C471.951 381.5 466.951 382.407 462.551 383.16C458.311 383.77 453.171 384.67 447.411 385.58C434.411 387.7 422.741 389.37 411.691 390.58C399.891 391.94 388.691 393 378.091 393.58C373.261 393.86 368.301 394.01 363.551 394.13H363.001L361.701 394.18C360.461 394.26 359.261 394.29 358.051 394.32H354.001C351.681 394.32 349.261 394.21 346.811 394.18H345.001V394.33L345.301 394.27V394.33H347.001C349.461 394.33 351.911 394.46 354.261 394.46H358.001L357.911 394.31H358.001C358.591 395.36 359.221 396.4 359.851 397.46L360.521 398.55H361.801C363.101 398.55 364.391 398.55 365.691 398.5H366.001C368.831 398.43 371.631 398.31 374.401 398.17L378.601 397.94C389.201 397.34 400.551 396.28 412.341 394.94C423.391 393.73 435.041 392.06 448.211 389.94C450.651 389.62 452.984 389.287 455.211 388.94L459.021 388.31L460.401 388.06L463.401 387.55C467.791 386.79 472.931 385.88 478.531 384.83C491.101 382.56 503.201 379.98 514.711 377.26C519.841 376.06 524.711 374.84 529.451 373.58L529.711 373.52C535.611 371.96 541.211 370.37 546.641 368.78C552.551 367.12 557.991 365.3 563.141 363.64L564.491 363.17C566.261 362.58 567.951 361.97 569.651 361.37C574.191 359.85 578.431 358.19 582.651 356.52L584.771 355.77C600.211 349.41 613.081 342.6 623.221 335.48C638.281 331.26 657.221 329.75 681.311 330.78H681.641C661.361 346.07 631.541 360.3 592.801 373.46H592.641L586.641 375.46C575.459 379.116 564.185 382.487 552.831 385.57L552.371 385.72C551.011 386.03 549.801 386.48 548.441 386.78L544.201 387.84C538.751 389.36 533.301 390.72 528.201 391.93C525.201 392.69 522.291 393.29 519.421 394.05L513.211 395.56C510.031 396.17 507.011 396.92 503.981 397.56C495.201 399.38 486.421 401.19 477.641 402.86C473.411 403.61 469.641 404.22 466.291 404.86C462.941 405.5 459.291 406.08 454.941 406.68C446.621 407.89 437.691 409.25 428.761 410.31L428.001 410.46C425.281 410.92 422.401 411.22 419.521 411.52L413.021 412.28C409.841 412.73 406.511 413.04 403.181 413.34C397.431 413.79 391.521 414.4 385.621 414.85L384.561 415C383.501 415.16 382.561 415.16 381.561 415.31L378.991 415.46C365.851 416.4 353.191 416.97 341.211 417.2L336.611 417.28H335.551C295.221 417.67 262.711 414.07 238.881 406.33L238.661 406.27H238.531C259.441 397.85 276.601 393.16 292.871 391.33H292.721C289.861 390.41 287.131 389.39 284.581 388.33C287.501 387.83 290.364 387.423 293.171 387.11L293.601 391.35C294.961 391.2 296.171 391.2 297.531 391.05C301.081 390.778 304.644 390.722 308.201 390.88C314.418 392.089 320.693 392.973 327.001 393.53C329.631 393.79 332.351 393.99 335.141 394.15C337.931 394.31 340.591 394.44 343.401 394.53H343.551L344.051 394.42L344.631 394.35L345.071 394.27L344.111 394.08ZM345.901 321.9C335.801 313.102 324.729 305.486 312.901 299.2L309.271 297.38C296.551 291.17 281.721 286.33 264.011 282.24C248.571 278.61 232.381 276.19 215.881 273.62L213.161 273.16C199.381 271.04 186.371 269.08 173.801 266.66L174.711 262.27C187.271 264.69 200.291 266.66 213.911 268.77L216.641 269.23C233.291 271.8 249.481 274.23 265.071 277.86C283.231 281.94 298.221 287.09 311.231 293.29L314.871 295.11C327.052 301.513 338.432 309.338 348.771 318.42L345.901 321.9ZM350.141 375.78C344.091 371.09 338.491 366.85 333.041 363.07C308.371 345.81 286.421 335.52 263.871 330.98L262.361 330.68C245.101 327.35 224.971 326.14 200.601 327.05H200.451C178.501 327.8 155.651 330.05 135.521 332.05H135.071C114.181 334.17 94.501 336.14 76.191 336.89L76.041 332.35C94.201 331.6 113.881 329.63 134.611 327.51H135.071C155.201 325.51 178.071 323.27 200.151 322.51H200.301C224.971 321.6 245.561 322.81 263.111 326.29L264.631 326.59C287.781 331.28 310.331 341.73 335.461 359.44C340.911 363.37 346.661 367.44 352.711 372.3L350.141 375.78Z" fill="white"/>
<path d="M355.58 394.55H354.22C351.87 394.55 349.42 394.45 346.96 394.42L346.73 394.26C341.53 390.98 336.79 388.16 332.29 385.65C330.29 384.53 328.29 383.46 326.39 382.44L325.86 382.17C302.49 369.77 281.86 363.64 260.86 362.85C259.86 362.85 258.91 362.79 257.94 362.78H256.09C238.23 362.78 217.78 365.35 193.46 370.48C192.7 370.63 191.95 370.78 191.19 370.95C190.59 371.09 189.97 371.21 189.36 371.34C168.93 375.79 148.3 381.49 129.8 386.62L127.32 387.3L125.09 387.89C103.6 393.95 83.3202 399.55 64.4002 403.48L63.4902 399.09C82.1602 395.17 102.34 389.62 123.58 383.59L123.88 383.5L126.15 382.9L128.24 382.32C146.79 377.18 167.63 371.46 188.16 366.85L190.16 366.4L192.22 365.96C216.29 360.8 236.66 358.21 254.38 358.09H258.88C280.4 358.55 301.44 364.35 324.88 376.35C326.04 376.94 327.21 377.57 328.39 378.19C328.72 378.37 329.05 378.53 329.39 378.73C337.07 382.83 345.48 387.92 355.39 394.38L355.58 394.55Z" fill="white"/>
<path d="M344.551 394.22L343.971 394.29L343.471 394.4H343.321C340.511 394.31 337.751 394.19 335.061 394.02C332.371 393.85 329.551 393.66 326.921 393.4L326.011 393.19C325.611 393.08 325.221 393.01 324.811 392.92C319.894 391.83 314.898 391.131 309.871 390.83C309.521 390.83 309.161 390.78 308.811 390.77H308.221C304.664 390.612 301.101 390.669 297.551 390.94C296.191 391.09 294.981 391.09 293.621 391.24L293.101 387V386.7C294.458 386.53 295.823 386.43 297.191 386.4C308.313 385.631 319.486 386.72 330.251 389.62C333.624 390.494 337.044 391.534 340.511 392.74C340.951 392.89 341.401 393.04 341.841 393.21H342.141L342.601 393.51L343.841 394L344.141 394.1C344.268 394.146 344.398 394.183 344.531 394.21L344.551 394.22ZM141.731 451.16L140.061 447.07C153.061 441.62 166.701 434.96 181.061 427.85L182.121 427.39C198.121 419.52 214.661 411.39 231.311 404.39L232.971 408.47C216.471 415.47 199.971 423.47 184.091 431.33L183.031 431.93C168.521 439.05 154.891 445.71 141.731 451.16V451.16ZM470.921 431.48C468.801 431.78 466.531 432.24 464.111 432.54C459.571 433.3 454.421 434.05 448.821 434.96L447.461 435.11C445.191 435.42 442.921 435.72 440.461 436.02C438.001 436.32 435.461 436.78 432.741 437.08H432.291C428.201 437.69 423.811 438.14 419.421 438.75H419.001L413.401 439.35C379.484 443.407 345.384 445.743 311.231 446.35L305.941 446.5L309.571 442.57C317.571 434.09 326.371 425.16 335.151 417.57L335.751 416.96H336.511C351.511 416.81 367.691 416.05 384.511 414.69L385.721 414.54C391.721 414.08 397.721 413.48 403.281 413.03C406.761 412.72 410.281 412.27 413.571 411.97L419.621 411.21C422.501 410.91 425.221 410.6 427.801 410.15L428.701 410C437.791 408.94 446.561 407.58 454.891 406.37C459.277 405.757 463.061 405.15 466.241 404.55C469.571 403.94 473.351 403.34 477.591 402.55C486.371 400.89 495.151 399.07 503.931 397.25C506.931 396.65 509.981 395.89 513.161 395.25L519.971 393.58C522.701 392.98 525.421 392.37 528.141 391.58C533.294 390.374 538.594 389.014 544.041 387.5L548.271 386.44C563.711 382.2 578.551 377.81 592.271 373.12L593.181 372.97L593.781 373.12C605.001 377.6 616.371 383.35 627.001 388.8L631.841 391.22L626.701 392.89C593.964 403.585 560.713 412.633 527.071 420L518.001 422C514.671 422.75 511.501 423.36 508.471 424L505.591 424.61C503.931 424.91 502.411 425.21 500.751 425.52C499.091 425.83 497.271 426.27 495.601 426.58L492.731 427.18C487.131 428.24 481.981 429.18 477.441 430.06C475.319 430.747 473.135 431.223 470.921 431.48V431.48ZM418.551 434.48H419.161C423.401 434.02 427.631 433.42 431.721 432.81H432.181C434.751 432.51 437.321 432.06 439.741 431.75C442.161 431.44 444.591 431.15 446.741 430.85L447.951 430.69C453.551 429.79 458.541 429.03 463.081 428.42C465.33 427.947 467.603 427.593 469.891 427.36C472.011 427.06 474.281 426.61 476.551 426.15C481.091 425.4 486.241 424.34 491.841 423.28L494.721 422.67C496.381 422.37 498.041 422.07 499.861 421.61C501.371 421.31 503.041 421.01 504.551 420.7L507.431 420.1C510.431 419.49 513.631 418.74 516.961 418.1L525.891 416.1C559.651 408.54 591.281 400.1 619.891 390.83C611.111 386.29 601.891 381.9 592.791 378.27C579.171 382.81 564.491 387.35 549.201 391.43L545.721 392.34C539.971 393.85 534.371 395.34 528.921 396.58C526.201 397.18 523.471 397.94 520.751 398.58L513.751 400.24C510.571 401 507.541 401.6 504.511 402.24C495.731 404.24 486.801 406.02 478.031 407.69C473.791 408.44 470.031 409.2 466.671 409.69C463.497 410.29 459.664 410.894 455.171 411.5C446.697 412.834 437.921 414.044 428.841 415.13L427.931 415.29C425.201 415.59 422.481 415.89 419.601 416.35L413.551 417.1C410.221 417.4 406.741 417.86 403.111 418.16C397.351 418.77 391.451 419.22 385.401 419.68L384.191 419.83C367.541 421.04 351.641 421.83 336.811 422.1C329.701 428.3 322.581 435.42 315.931 442.38C345.741 441.77 378.131 439.38 412.191 435.38L418.541 434.47L418.551 434.48Z" fill="white"/>
<path d="M290.361 468.87L287.361 465.54C292.811 460.69 299.161 453.88 305.821 446.77L309.611 442.68L312.941 445.86L309.151 449.79C302.311 457.06 296.001 463.87 290.361 468.87V468.87Z" fill="white"/>
<path d="M562.504 363.111L564.502 359.035L594.269 373.624L592.271 377.701L562.504 363.111Z" fill="white"/>
<path d="M360.001 398.67L359.841 398.82C358.361 400.27 348.201 410.15 341.161 417.16C341.093 417.241 341.02 417.318 340.941 417.39L338.511 419.82L335.201 417.54L335.501 417.24L335.811 416.93C335.811 416.93 350.681 400.98 354.271 398.93L359.731 398.67H360.001Z" fill="white"/>
<path d="M361.801 398.64H359.732L354.271 398.9H348.651C346.881 398.9 345.111 398.8 343.461 398.72C343.018 398.729 342.574 398.712 342.132 398.67H339.441L338.441 398.62H337.572C337.322 398.64 337.071 398.64 336.822 398.62H335.611C325.779 398.1 315.995 396.89 306.331 395C304.571 394.64 302.861 394.26 301.181 393.86C300.481 393.7 299.791 393.52 299.091 393.35C297.091 392.8 295.142 392.24 293.262 391.65L292.811 391.55H292.661C289.801 390.63 287.071 389.61 284.521 388.55C287.441 388.05 290.305 387.643 293.111 387.33L293.542 391.57C294.902 391.42 296.111 391.42 297.471 391.27C301.021 390.998 304.585 390.942 308.142 391.1C314.355 392.308 320.626 393.193 326.931 393.75C329.561 394.01 332.282 394.21 335.072 394.37C337.862 394.53 340.521 394.66 343.331 394.75H343.482L343.982 394.64L344.561 394.57L345.001 394.49V394.75L345.301 394.69V394.75H347.001C349.461 394.75 351.912 394.88 354.262 394.88H358.001L357.911 394.73H358.001C358.591 395.73 359.222 396.82 359.852 397.88L360.521 398.97L361.801 398.64Z" fill="white"/>
<path d="M566 354.72C565.85 355.79 565.68 356.86 565.49 357.92C565.24 359.3 564.97 360.68 564.67 362.04L564.46 362.99L564.4 363.21V363.3L563.19 363.71C557.27 365.71 551.49 367.43 546.62 368.88C541.31 370.46 535.62 372 529.62 373.56L529.36 373.62C524.73 374.82 519.85 376.01 514.69 377.24C501.69 380.37 489.64 382.73 478.56 384.82C473.89 385.71 469.06 386.58 463.4 387.56L460.34 388.1L458.96 388.35L455.15 388.98C452.97 389.32 450.61 389.66 448.15 389.98C435.33 392.05 423.57 393.68 412.24 394.98C400.58 396.3 389.24 397.31 378.38 397.98L374.38 398.21C371.61 398.35 368.81 398.47 365.98 398.54H360.5L359.83 397.45C359.2 396.39 358.57 395.35 357.98 394.3C356.927 392.46 355.947 390.633 355.04 388.82C354.69 388.14 354.36 387.45 354.04 386.82C353.72 386.19 353.41 385.44 353.04 384.74C352.28 383.09 351.6 381.45 350.98 379.81C350.65 378.98 350.35 378.15 350.04 377.31C349.73 376.47 349.42 375.51 349.14 374.6C348.92 373.98 348.71 373.35 348.5 372.71C347.68 370.11 346.93 367.38 346.24 364.49C346.08 363.77 345.91 363.03 345.74 362.28C345.707 362.152 345.684 362.021 345.67 361.89C345.5 361.13 345.34 360.38 345.2 359.59C345.06 358.95 344.94 358.32 344.82 357.67L344.52 355.67L343.9 351.67L343.81 350.81C342.652 340.409 342.989 329.895 344.81 319.59C347.501 304.326 353.357 289.795 362 276.93C363.37 274.86 364.83 272.85 366.34 270.86C371.616 264.082 377.603 257.89 384.2 252.39C396.53 242.34 410.842 235.007 426.2 230.87C428.56 230.24 430.94 229.68 433.34 229.21L438.87 228.28C458.076 225.468 477.682 227.722 495.748 234.819C513.815 241.915 529.713 253.608 541.87 268.74C542.51 269.53 543.14 270.33 543.76 271.13C544.38 271.93 544.91 272.65 545.46 273.4C546.01 274.15 546.76 275.22 547.39 276.13C549.27 278.897 551.027 281.74 552.66 284.66C557.761 293.868 561.551 303.744 563.92 314C564.23 314.93 564.5 315.83 564.71 316.74C565.032 317.959 565.289 319.194 565.48 320.44C565.49 320.516 565.49 320.594 565.48 320.67C565.881 322.991 566.201 325.326 566.44 327.67C566.54 328.67 566.62 329.67 566.69 330.67C566.76 331.67 566.83 332.61 566.87 333.61C566.91 334.61 566.97 335.38 567 336.28V336.51C567.203 342.597 566.868 348.691 566 354.72V354.72Z" fill="white"/>
</g>
</svg>
