<?xml version="1.0" encoding="UTF-8"?>
<!DOCTYPE svg PUBLIC "-//W3C//DTD SVG 1.1//EN" "http://www.w3.org/Graphics/SVG/1.1/DTD/svg11.dtd">
<svg xmlns="http://www.w3.org/2000/svg" version="1.1" width="250px" height="250px" style="shape-rendering:geometricPrecision; text-rendering:geometricPrecision; image-rendering:optimizeQuality; fill-rule:evenodd; clip-rule:evenodd" xmlns:xlink="http://www.w3.org/1999/xlink">
<g><path style="opacity:1" fill="#fdfdfe" d="M -0.5,-0.5 C 82.8333,-0.5 166.167,-0.5 249.5,-0.5C 249.5,82.8333 249.5,166.167 249.5,249.5C 166.167,249.5 82.8333,249.5 -0.5,249.5C -0.5,166.167 -0.5,82.8333 -0.5,-0.5 Z"/></g>
<g><path style="opacity:1" fill="#8cb4e2" d="M 132.5,4.5 C 117.244,4.01332 102.244,5.67999 87.5,9.5C 89.0188,8.59018 90.6854,7.75684 92.5,7C 105.839,3.66211 119.172,2.82877 132.5,4.5 Z"/></g>
<g><path style="opacity:1" fill="#2a76ca" d="M 132.5,4.5 C 136.842,4.73948 141.176,5.07281 145.5,5.5C 147.515,6.92381 149.848,7.59047 152.5,7.5C 152.833,7.5 153.167,7.5 153.5,7.5C 155.515,8.92381 157.848,9.59047 160.5,9.5C 166.221,10.5918 171.554,12.5918 176.5,15.5C 176.973,16.9063 177.973,17.573 179.5,17.5C 183.805,19.7862 188.139,22.1195 192.5,24.5C 193.585,26.5869 195.251,27.9202 197.5,28.5C 197.973,29.9063 198.973,30.573 200.5,30.5C 204.5,35.1667 208.833,39.5 213.5,43.5C 220.418,50.0809 225.751,57.7476 229.5,66.5C 229.427,68.0269 230.094,69.0269 231.5,69.5C 233.679,73.2025 235.345,77.2025 236.5,81.5C 237.06,83.8008 237.56,86.1341 238,88.5C 238.383,89.056 238.883,89.3893 239.5,89.5C 239.5,89.8333 239.5,90.1667 239.5,90.5C 240.657,96.9848 241.99,103.318 243.5,109.5C 244.469,117.748 244.802,126.082 244.5,134.5C 244.702,136.95 244.369,139.283 243.5,141.5C 235.929,127.65 225.263,116.983 211.5,109.5C 212.139,108.903 212.472,108.07 212.5,107C 211.392,103.179 210.392,99.3455 209.5,95.5C 209.065,92.8427 208.065,90.5093 206.5,88.5C 204.268,83.0353 201.268,78.0353 197.5,73.5C 196.92,71.2512 195.587,69.5846 193.5,68.5C 184.537,57.5443 173.537,49.211 160.5,43.5C 160.027,42.0937 159.027,41.427 157.5,41.5C 154.598,40.4222 151.598,39.7556 148.5,39.5C 147.883,39.6107 147.383,39.944 147,40.5C 146.333,45.1667 146.333,49.8333 147,54.5C 147.671,55.2524 148.504,55.5858 149.5,55.5C 152.053,57.5837 155.053,58.917 158.5,59.5C 158.842,60.3382 159.508,60.6716 160.5,60.5C 160.973,61.9063 161.973,62.573 163.5,62.5C 164.514,63.6737 165.847,64.3404 167.5,64.5C 168.585,66.5869 170.251,67.9202 172.5,68.5C 179.965,74.9713 185.965,82.638 190.5,91.5C 190.755,93.9674 191.755,95.9674 193.5,97.5C 194.612,99.5994 195.279,101.933 195.5,104.5C 174.022,100.862 155.355,106.195 139.5,120.5C 139.167,120.5 138.833,120.5 138.5,120.5C 136.039,119.469 133.373,118.802 130.5,118.5C 126.684,117.518 122.684,116.851 118.5,116.5C 107.052,113.436 104.386,106.602 110.5,96C 118.473,92.714 126.473,92.714 134.5,96C 137.637,98.4399 139.637,101.607 140.5,105.5C 144.649,106.809 148.649,106.809 152.5,105.5C 155.155,101.711 154.822,98.0443 151.5,94.5C 148.747,89.4112 144.747,85.7445 139.5,83.5C 137.721,81.6565 135.388,80.9898 132.5,81.5C 132.819,76.6367 132.486,71.97 131.5,67.5C 126.937,65.2861 122.271,64.9528 117.5,66.5C 116.883,66.6107 116.383,66.944 116,67.5C 115.501,71.8206 115.334,76.1539 115.5,80.5C 112.084,80.5275 109.084,81.5275 106.5,83.5C 91.4247,91.6773 87.5914,103.677 95,119.5C 97.8275,123.175 101.328,125.842 105.5,127.5C 107.515,128.924 109.848,129.59 112.5,129.5C 114.717,130.369 117.05,130.702 119.5,130.5C 119.918,131.222 120.584,131.722 121.5,132C 124.146,132.497 126.813,132.664 129.5,132.5C 127.06,135.043 125.394,138.043 124.5,141.5C 122.755,143.033 121.755,145.033 121.5,147.5C 120.387,151.238 119.387,154.904 118.5,158.5C 115.965,156.983 113.298,155.65 110.5,154.5C 108.177,150.577 105.844,146.577 103.5,142.5C 99.6888,141.355 95.6888,141.188 91.5,142C 90.944,142.383 90.6107,142.883 90.5,143.5C 91.4966,159.503 100.163,168.503 116.5,170.5C 116.334,175.179 116.501,179.845 117,184.5C 118.554,186.927 119.721,186.927 120.5,184.5C 121.946,188.825 123.613,193.158 125.5,197.5C 125.725,200.546 127.058,202.879 129.5,204.5C 140.968,221.063 156.635,230.73 176.5,233.5C 175.508,233.328 174.842,233.662 174.5,234.5C 171.053,235.083 168.053,236.416 165.5,238.5C 162.99,238.927 160.657,239.593 158.5,240.5C 154.521,240.742 150.854,241.742 147.5,243.5C 143.821,243.724 140.154,244.058 136.5,244.5C 124.815,244.635 113.148,244.302 101.5,243.5C 100.833,243.5 100.167,243.5 99.5,243.5C 97.4855,242.076 95.1522,241.41 92.5,241.5C 88.1667,240.167 83.8333,238.833 79.5,237.5C 77.9674,235.755 75.9674,234.755 73.5,234.5C 45.7131,221.38 25.7131,200.713 13.5,172.5C 12.917,169.053 11.5837,166.053 9.5,163.5C 9.47249,160.084 8.47249,157.084 6.5,154.5C 5.94119,150.147 5.27453,145.814 4.5,141.5C 3.87596,133.181 3.54263,124.848 3.5,116.5C 4.52495,113.026 5.19162,109.36 5.5,105.5C 6.66037,101.319 7.66037,96.9854 8.5,92.5C 8.88393,88.414 9.71727,84.414 11,80.5C 13.3186,76.1585 15.4852,71.8252 17.5,67.5C 18.9063,67.0269 19.573,66.0269 19.5,64.5C 19.7497,62.326 20.7497,60.6594 22.5,59.5C 23.9063,59.0269 24.573,58.0269 24.5,56.5C 26.016,53.4669 28.016,50.8003 30.5,48.5C 32.5869,47.4154 33.9202,45.7488 34.5,43.5C 43.7085,33.2375 54.3752,24.9042 66.5,18.5C 69.721,18.1039 72.3877,16.7705 74.5,14.5C 78.3948,13.5376 82.0615,12.2043 85.5,10.5C 85.8417,9.66175 86.5084,9.32842 87.5,9.5C 102.244,5.67999 117.244,4.01332 132.5,4.5 Z"/></g>
<g><path style="opacity:1" fill="#97bce5" d="M 145.5,5.5 C 148.152,5.40953 150.485,6.07619 152.5,7.5C 149.848,7.59047 147.515,6.92381 145.5,5.5 Z"/></g>
<g><path style="opacity:1" fill="#a0c0e7" d="M 153.5,7.5 C 156.152,7.40953 158.485,8.07619 160.5,9.5C 157.848,9.59047 155.515,8.92381 153.5,7.5 Z"/></g>
<g><path style="opacity:1" fill="#8bb3e2" d="M 85.5,10.5 C 82.0615,12.2043 78.3948,13.5376 74.5,14.5C 77.6257,12.0103 81.2924,10.677 85.5,10.5 Z"/></g>
<g><path style="opacity:1" fill="#7ba8de" d="M 74.5,14.5 C 72.3877,16.7705 69.721,18.1039 66.5,18.5C 68.6123,16.2295 71.279,14.8961 74.5,14.5 Z"/></g>
<g><path style="opacity:1" fill="#99bce5" d="M 176.5,15.5 C 178.027,15.427 179.027,16.0937 179.5,17.5C 177.973,17.573 176.973,16.9063 176.5,15.5 Z"/></g>
<g><path style="opacity:1" fill="#b7d0ed" d="M 192.5,24.5 C 194.749,25.0798 196.415,26.4131 197.5,28.5C 195.251,27.9202 193.585,26.5869 192.5,24.5 Z"/></g>
<g><path style="opacity:1" fill="#bcd3ee" d="M 200.5,30.5 C 205.833,33.8333 210.167,38.1667 213.5,43.5C 208.833,39.5 204.5,35.1667 200.5,30.5 Z"/></g>
<g><path style="opacity:1" fill="#f8fafd" d="M 100.5,52.5 C 85.251,59.2315 72.4177,69.2315 62,82.5C 60.8068,84.8864 59.6401,87.2198 58.5,89.5C 56.7549,91.0326 55.7549,93.0326 55.5,95.5C 52.8816,100.438 51.0482,105.771 50,111.5C 49.5002,120.494 49.3336,129.494 49.5,138.5C 49.7234,142.162 50.7234,145.495 52.5,148.5C 52.804,151.522 53.304,154.522 54,157.5C 54.6708,158.252 55.5041,158.586 56.5,158.5C 62.9534,172.07 72.6201,182.736 85.5,190.5C 85.9731,191.906 86.9731,192.573 88.5,192.5C 92.8147,194.411 96.9814,196.745 101,199.5C 101.667,203.167 101.667,206.833 101,210.5C 99.1917,212.396 97.025,212.896 94.5,212C 67.6805,202.347 49.3472,184.18 39.5,157.5C 38.871,154.603 37.871,151.936 36.5,149.5C 35.0976,144.616 34.431,139.616 34.5,134.5C 34.5786,123.461 35.2453,112.461 36.5,101.5C 37.9869,97.8835 39.3202,94.2169 40.5,90.5C 42.2451,88.9674 43.2451,86.9674 43.5,84.5C 53.4282,64.5714 68.7615,50.5714 89.5,42.5C 99.8906,37.8807 103.557,41.214 100.5,52.5 Z"/></g>
<g><path style="opacity:1" fill="#f9fbfd" d="M 148.5,39.5 C 151.598,39.7556 154.598,40.4222 157.5,41.5C 157.973,42.9063 158.973,43.573 160.5,43.5C 173.537,49.211 184.537,57.5443 193.5,68.5C 194.08,70.7488 195.413,72.4154 197.5,73.5C 201.268,78.0353 204.268,83.0353 206.5,88.5C 206.166,91.491 207.166,93.8243 209.5,95.5C 210.392,99.3455 211.392,103.179 212.5,107C 212.472,108.07 212.139,108.903 211.5,109.5C 210.391,109.443 209.391,109.11 208.5,108.5C 205.374,106.01 201.708,104.677 197.5,104.5C 196.833,104.5 196.167,104.5 195.5,104.5C 195.279,101.933 194.612,99.5994 193.5,97.5C 193.245,95.0326 192.245,93.0326 190.5,91.5C 185.965,82.638 179.965,74.9713 172.5,68.5C 171.415,66.4131 169.749,65.0798 167.5,64.5C 165.847,64.3404 164.514,63.6737 163.5,62.5C 163.027,61.0937 162.027,60.427 160.5,60.5C 159.508,60.6716 158.842,60.3382 158.5,59.5C 155.947,57.4163 152.947,56.083 149.5,55.5C 147.188,50.3994 146.855,45.0661 148.5,39.5 Z"/></g>
<g><path style="opacity:1" fill="#b1ccec" d="M 100.5,52.5 C 103.557,41.214 99.8906,37.8807 89.5,42.5C 90.347,41.0337 91.6803,40.2004 93.5,40C 95.8333,39.3333 98.1667,39.3333 100.5,40C 101.822,44.2669 101.822,48.4336 100.5,52.5 Z"/></g>
<g><path style="opacity:1" fill="#97bbe5" d="M 157.5,41.5 C 159.027,41.427 160.027,42.0937 160.5,43.5C 158.973,43.573 157.973,42.9063 157.5,41.5 Z"/></g>
<g><path style="opacity:1" fill="#9abde6" d="M 148.5,39.5 C 146.855,45.0661 147.188,50.3994 149.5,55.5C 148.504,55.5858 147.671,55.2524 147,54.5C 146.333,49.8333 146.333,45.1667 147,40.5C 147.383,39.944 147.883,39.6107 148.5,39.5 Z"/></g>
<g><path style="opacity:1" fill="#89b2e1" d="M 34.5,43.5 C 33.9202,45.7488 32.5869,47.4154 30.5,48.5C 31.0798,46.2512 32.4131,44.5846 34.5,43.5 Z"/></g>
<g><path style="opacity:1" fill="#92b7e4" d="M 149.5,55.5 C 152.947,56.083 155.947,57.4163 158.5,59.5C 155.053,58.917 152.053,57.5837 149.5,55.5 Z"/></g>
<g><path style="opacity:1" fill="#86b1e1" d="M 24.5,56.5 C 24.573,58.0269 23.9063,59.0269 22.5,59.5C 22.427,57.9731 23.0937,56.9731 24.5,56.5 Z"/></g>
<g><path style="opacity:1" fill="#93b9e4" d="M 160.5,60.5 C 162.027,60.427 163.027,61.0937 163.5,62.5C 161.973,62.573 160.973,61.9063 160.5,60.5 Z"/></g>
<g><path style="opacity:1" fill="#97bbe5" d="M 19.5,64.5 C 19.573,66.0269 18.9063,67.0269 17.5,67.5C 17.427,65.9731 18.0937,64.9731 19.5,64.5 Z"/></g>
<g><path style="opacity:1" fill="#f7f9fc" d="M 131.5,67.5 C 131.5,72.5 131.5,77.5 131.5,82.5C 134.237,82.4013 136.904,82.7347 139.5,83.5C 144.747,85.7445 148.747,89.4112 151.5,94.5C 152.114,98.1352 152.448,101.802 152.5,105.5C 148.649,106.809 144.649,106.809 140.5,105.5C 139.637,101.607 137.637,98.4399 134.5,96C 126.473,92.714 118.473,92.714 110.5,96C 104.386,106.602 107.052,113.436 118.5,116.5C 122.183,118.25 126.183,118.917 130.5,118.5C 133.373,118.802 136.039,119.469 138.5,120.5C 136.748,122.246 135.415,124.246 134.5,126.5C 132.473,127.861 130.806,129.527 129.5,131.5C 126.14,131.384 122.807,131.051 119.5,130.5C 117.05,130.702 114.717,130.369 112.5,129.5C 110.485,128.076 108.152,127.41 105.5,127.5C 101.328,125.842 97.8275,123.175 95,119.5C 87.5914,103.677 91.4247,91.6773 106.5,83.5C 109.855,83.3104 112.855,82.3104 115.5,80.5C 116.273,75.9714 116.94,71.3047 117.5,66.5C 122.271,64.9528 126.937,65.2861 131.5,67.5 Z"/></g>
<g><path style="opacity:1" fill="#b7cfec" d="M 167.5,64.5 C 169.749,65.0798 171.415,66.4131 172.5,68.5C 170.251,67.9202 168.585,66.5869 167.5,64.5 Z"/></g>
<g><path style="opacity:1" fill="#6b9eda" d="M 131.5,67.5 C 132.486,71.97 132.819,76.6367 132.5,81.5C 135.388,80.9898 137.721,81.6565 139.5,83.5C 136.904,82.7347 134.237,82.4013 131.5,82.5C 131.5,77.5 131.5,72.5 131.5,67.5 Z"/></g>
<g><path style="opacity:1" fill="#88b2e1" d="M 229.5,66.5 C 230.906,66.9731 231.573,67.9731 231.5,69.5C 230.094,69.0269 229.427,68.0269 229.5,66.5 Z"/></g>
<g><path style="opacity:1" fill="#93b9e4" d="M 117.5,66.5 C 116.94,71.3047 116.273,75.9714 115.5,80.5C 115.334,76.1539 115.501,71.8206 116,67.5C 116.383,66.944 116.883,66.6107 117.5,66.5 Z"/></g>
<g><path style="opacity:1" fill="#b1ccec" d="M 193.5,68.5 C 195.587,69.5846 196.92,71.2512 197.5,73.5C 195.413,72.4154 194.08,70.7488 193.5,68.5 Z"/></g>
<g><path style="opacity:1" fill="#94b8e4" d="M 115.5,80.5 C 112.855,82.3104 109.855,83.3104 106.5,83.5C 109.084,81.5275 112.084,80.5275 115.5,80.5 Z"/></g>
<g><path style="opacity:1" fill="#75a3dc" d="M 236.5,81.5 C 237.117,81.6107 237.617,81.944 238,82.5C 238.44,84.8659 238.94,87.1992 239.5,89.5C 238.883,89.3893 238.383,89.056 238,88.5C 237.56,86.1341 237.06,83.8008 236.5,81.5 Z"/></g>
<g><path style="opacity:1" fill="#a0c1e7" d="M 43.5,84.5 C 43.2451,86.9674 42.2451,88.9674 40.5,90.5C 40.7549,88.0326 41.7549,86.0326 43.5,84.5 Z"/></g>
<g><path style="opacity:1" fill="#adc9ea" d="M 206.5,88.5 C 208.065,90.5093 209.065,92.8427 209.5,95.5C 207.166,93.8243 206.166,91.491 206.5,88.5 Z"/></g>
<g><path style="opacity:1" fill="#7ca9de" d="M 58.5,89.5 C 58.2451,91.9674 57.2451,93.9674 55.5,95.5C 55.7549,93.0326 56.7549,91.0326 58.5,89.5 Z"/></g>
<g><path style="opacity:1" fill="#85afe0" d="M 190.5,91.5 C 192.245,93.0326 193.245,95.0326 193.5,97.5C 191.755,95.9674 190.755,93.9674 190.5,91.5 Z"/></g>
<g><path style="opacity:1" fill="#79a7dd" d="M 239.5,90.5 C 241.96,95.4412 243.293,100.775 243.5,106.5C 243.5,107.5 243.5,108.5 243.5,109.5C 241.99,103.318 240.657,96.9848 239.5,90.5 Z"/></g>
<g><path style="opacity:1" fill="#5b94d6" d="M 8.5,92.5 C 7.66037,96.9854 6.66037,101.319 5.5,105.5C 5.5,104.167 5.5,102.833 5.5,101.5C 5.68964,98.145 6.68964,95.145 8.5,92.5 Z"/></g>
<g><path style="opacity:1" fill="#c0d4ef" d="M 151.5,94.5 C 154.822,98.0443 155.155,101.711 152.5,105.5C 152.448,101.802 152.114,98.1352 151.5,94.5 Z"/></g>
<g><path style="opacity:1" fill="#05060b" d="M 195.5,104.5 C 196.167,104.5 196.833,104.5 197.5,104.5C 200.939,106.204 204.605,107.538 208.5,108.5C 209.391,109.11 210.391,109.443 211.5,109.5C 225.263,116.983 235.929,127.65 243.5,141.5C 244.323,144.461 244.99,147.461 245.5,150.5C 245.41,153.152 246.076,155.485 247.5,157.5C 248.733,165.45 248.733,173.45 247.5,181.5C 245.926,183.102 245.259,185.102 245.5,187.5C 244.833,189.833 244.167,192.167 243.5,194.5C 241.076,197.008 239.41,200.008 238.5,203.5C 237.094,203.973 236.427,204.973 236.5,206.5C 230.372,214.299 223.039,220.633 214.5,225.5C 212.326,225.75 210.659,226.75 209.5,228.5C 207.421,228.971 205.421,229.637 203.5,230.5C 200.848,230.41 198.515,231.076 196.5,232.5C 189.869,233.331 183.202,233.664 176.5,233.5C 156.635,230.73 140.968,221.063 129.5,204.5C 128.532,201.9 127.199,199.566 125.5,197.5C 123.613,193.158 121.946,188.825 120.5,184.5C 118.802,175.944 118.135,167.278 118.5,158.5C 119.387,154.904 120.387,151.238 121.5,147.5C 123.245,145.967 124.245,143.967 124.5,141.5C 125.394,138.043 127.06,135.043 129.5,132.5C 129.5,132.167 129.5,131.833 129.5,131.5C 130.806,129.527 132.473,127.861 134.5,126.5C 136.914,125.089 138.581,123.089 139.5,120.5C 155.355,106.195 174.022,100.862 195.5,104.5 Z"/></g>
<g><path style="opacity:1" fill="#9d9d9e" d="M 197.5,104.5 C 201.708,104.677 205.374,106.01 208.5,108.5C 204.605,107.538 200.939,106.204 197.5,104.5 Z"/></g>
<g><path style="opacity:1" fill="#01237b" d="M 201.5,117.5 C 189.797,115.066 178.131,115.066 166.5,117.5C 171.778,115.07 177.444,114.07 183.5,114.5C 189.87,114.103 195.87,115.103 201.5,117.5 Z"/></g>
<g><path style="opacity:1" fill="#88b1e1" d="M 5.5,101.5 C 5.5,102.833 5.5,104.167 5.5,105.5C 5.19162,109.36 4.52495,113.026 3.5,116.5C 3.5,114.5 3.5,112.5 3.5,110.5C 3.98956,107.345 4.65622,104.345 5.5,101.5 Z"/></g>
<g><path style="opacity:1" fill="#002ea5" d="M 201.5,117.5 C 213.806,121.466 223.14,129.133 229.5,140.5C 226.287,140.19 223.287,140.523 220.5,141.5C 193.102,142.846 167.768,150.68 144.5,165C 132.549,173.848 132.549,182.515 144.5,191C 150.362,193.132 156.362,194.632 162.5,195.5C 174.66,196.66 186.993,196.827 199.5,196C 200.416,195.722 201.082,195.222 201.5,194.5C 202.5,194.5 203.5,194.5 204.5,194.5C 214.401,193.513 224.068,191.513 233.5,188.5C 228.621,201.378 219.954,210.711 207.5,216.5C 205.973,216.427 204.973,217.094 204.5,218.5C 194.307,222.272 183.974,223.272 173.5,221.5C 169.699,218.925 165.365,217.592 160.5,217.5C 160.027,216.094 159.027,215.427 157.5,215.5C 142.188,206.589 133.022,193.256 130,175.5C 129.333,169.833 129.333,164.167 130,158.5C 130.21,156.942 130.71,155.609 131.5,154.5C 133.074,152.898 133.741,150.898 133.5,148.5C 134.167,146.833 134.833,145.167 135.5,143.5C 136.906,143.027 137.573,142.027 137.5,140.5C 137.427,138.973 138.094,137.973 139.5,137.5C 141.587,136.415 142.92,134.749 143.5,132.5C 149.347,124.741 157.013,119.741 166.5,117.5C 178.131,115.066 189.797,115.066 201.5,117.5 Z"/></g>
<g><path style="opacity:1" fill="#a5c4e8" d="M 118.5,116.5 C 122.684,116.851 126.684,117.518 130.5,118.5C 126.183,118.917 122.183,118.25 118.5,116.5 Z"/></g>
<g><path style="opacity:1" fill="#c8dcf1" d="M 3.5,110.5 C 3.5,112.5 3.5,114.5 3.5,116.5C 3.54263,124.848 3.87596,133.181 4.5,141.5C 3.0664,135.225 2.39974,128.725 2.5,122C 2.5012,117.985 2.83453,114.151 3.5,110.5 Z"/></g>
<g><path style="opacity:1" fill="#cfe0f3" d="M 243.5,106.5 C 244.268,107.263 244.768,108.263 245,109.5C 245.823,118.01 245.657,126.344 244.5,134.5C 244.802,126.082 244.469,117.748 243.5,109.5C 243.5,108.5 243.5,107.5 243.5,106.5 Z"/></g>
<g><path style="opacity:1" fill="#5a95d6" d="M 34.5,110.5 C 33.6591,117.465 33.3257,124.465 33.5,131.5C 32.8353,128.686 32.502,125.686 32.5,122.5C 32.2783,118.203 32.945,114.203 34.5,110.5 Z"/></g>
<g><path style="opacity:1" fill="#d1e0f3" d="M 36.5,101.5 C 35.2453,112.461 34.5786,123.461 34.5,134.5C 34.1667,134.5 33.8333,134.5 33.5,134.5C 33.5,133.5 33.5,132.5 33.5,131.5C 33.3257,124.465 33.6591,117.465 34.5,110.5C 34.4203,107.219 35.087,104.219 36.5,101.5 Z"/></g>
<g><path style="opacity:1" fill="#454545" d="M 138.5,120.5 C 138.833,120.5 139.167,120.5 139.5,120.5C 138.581,123.089 136.914,125.089 134.5,126.5C 135.415,124.246 136.748,122.246 138.5,120.5 Z"/></g>
<g><path style="opacity:1" fill="#aac7ea" d="M 105.5,127.5 C 108.152,127.41 110.485,128.076 112.5,129.5C 109.848,129.59 107.515,128.924 105.5,127.5 Z"/></g>
<g><path style="opacity:1" fill="#87afdf" d="M 119.5,130.5 C 122.807,131.051 126.14,131.384 129.5,131.5C 129.5,131.833 129.5,132.167 129.5,132.5C 126.813,132.664 124.146,132.497 121.5,132C 120.584,131.722 119.918,131.222 119.5,130.5 Z"/></g>
<g><path style="opacity:1" fill="#001f6c" d="M 143.5,132.5 C 142.92,134.749 141.587,136.415 139.5,137.5C 140.08,135.251 141.413,133.585 143.5,132.5 Z"/></g>
<g><path style="opacity:1" fill="#6ca0db" d="M 103.5,142.5 C 99.1018,142.294 94.7685,142.627 90.5,143.5C 90.6107,142.883 90.944,142.383 91.5,142C 95.6888,141.188 99.6888,141.355 103.5,142.5 Z"/></g>
<g><path style="opacity:1" fill="#5269bb" d="M 220.5,141.5 C 223.287,140.523 226.287,140.19 229.5,140.5C 230.338,140.842 230.672,141.508 230.5,142.5C 227.545,143.159 224.545,143.492 221.5,143.5C 222.952,142.698 224.618,142.198 226.5,142C 224.527,141.505 222.527,141.338 220.5,141.5 Z"/></g>
<g><path style="opacity:1" fill="#6499d8" d="M 33.5,134.5 C 33.8333,134.5 34.1667,134.5 34.5,134.5C 34.431,139.616 35.0976,144.616 36.5,149.5C 33.9816,144.927 32.9816,139.927 33.5,134.5 Z"/></g>
<g><path style="opacity:1" fill="#011a5a" d="M 137.5,140.5 C 137.573,142.027 136.906,143.027 135.5,143.5C 135.427,141.973 136.094,140.973 137.5,140.5 Z"/></g>
<g><path style="opacity:1" fill="#f1f5f9" d="M 103.5,142.5 C 105.844,146.577 108.177,150.577 110.5,154.5C 112.412,157.149 115.079,158.482 118.5,158.5C 118.135,167.278 118.802,175.944 120.5,184.5C 119.721,186.927 118.554,186.927 117,184.5C 116.501,179.845 116.334,175.179 116.5,170.5C 100.163,168.503 91.4966,159.503 90.5,143.5C 94.7685,142.627 99.1018,142.294 103.5,142.5 Z"/></g>
<g><path style="opacity:1" fill="#18457a" d="M 124.5,141.5 C 124.245,143.967 123.245,145.967 121.5,147.5C 121.755,145.033 122.755,143.033 124.5,141.5 Z"/></g>
<g><path style="opacity:1" fill="#1434a5" d="M 230.5,142.5 C 231.167,142.5 231.5,142.833 231.5,143.5C 227.997,145.024 224.33,145.358 220.5,144.5C 220.624,143.893 220.957,143.56 221.5,143.5C 224.545,143.492 227.545,143.159 230.5,142.5 Z"/></g>
<g><path style="opacity:1" fill="#98bbe5" d="M 49.5,138.5 C 51.2766,141.505 52.2766,144.838 52.5,148.5C 50.7234,145.495 49.7234,142.162 49.5,138.5 Z"/></g>
<g><path style="opacity:1" fill="#1b3aac" d="M 218.5,145.5 C 218.167,145.5 217.833,145.5 217.5,145.5C 211.933,145.924 206.599,146.924 201.5,148.5C 197.947,148.844 194.447,149.511 191,150.5C 189.941,150.37 189.108,149.87 188.5,149C 197.279,146.211 206.279,144.378 215.5,143.5C 217.03,143.64 218.03,144.307 218.5,145.5 Z"/></g>
<g><path style="opacity:1" fill="#5d74c4" d="M 217.5,145.5 C 217.011,146.995 216.345,148.329 215.5,149.5C 211.994,148.502 208.328,148.502 204.5,149.5C 203.791,148.596 202.791,148.263 201.5,148.5C 206.599,146.924 211.933,145.924 217.5,145.5 Z"/></g>
<g><path style="opacity:1" fill="#3e59b0" d="M 232.5,145.5 C 233.434,146.568 233.768,147.901 233.5,149.5C 233.167,149.5 232.833,149.5 232.5,149.5C 228.627,147.57 224.294,146.903 219.5,147.5C 219.5,147.167 219.5,146.833 219.5,146.5C 224.032,146.818 228.366,146.485 232.5,145.5 Z"/></g>
<g><path style="opacity:1" fill="#1837ab" d="M 215.5,149.5 C 209.746,150.465 204.08,151.798 198.5,153.5C 198.167,153.5 197.833,153.5 197.5,153.5C 196.022,153.762 194.689,153.429 193.5,152.5C 193.709,151.914 194.043,151.414 194.5,151C 197.827,150.39 201.161,149.89 204.5,149.5C 208.328,148.502 211.994,148.502 215.5,149.5 Z"/></g>
<g><path style="opacity:1" fill="#0c31a8" d="M 219.5,147.5 C 224.294,146.903 228.627,147.57 232.5,149.5C 229.167,149.5 225.833,149.5 222.5,149.5C 220.901,149.768 219.568,149.434 218.5,148.5C 218.5,147.833 218.833,147.5 219.5,147.5 Z"/></g>
<g><path style="opacity:1" fill="#4a64bd" d="M 218.5,148.5 C 219.568,149.434 220.901,149.768 222.5,149.5C 226.021,150.166 229.687,150.833 233.5,151.5C 233.376,152.107 233.043,152.44 232.5,152.5C 227.61,151.223 222.61,151.39 217.5,153C 218.056,153.383 218.389,153.883 218.5,154.5C 217.508,154.672 216.842,154.338 216.5,153.5C 216.796,151.597 217.463,149.93 218.5,148.5 Z"/></g>
<g><path style="opacity:1" fill="#8e9fd7" d="M 217.5,145.5 C 217.833,145.5 218.167,145.5 218.5,145.5C 219.167,145.5 219.5,145.833 219.5,146.5C 219.5,146.833 219.5,147.167 219.5,147.5C 218.833,147.5 218.5,147.833 218.5,148.5C 217.463,149.93 216.796,151.597 216.5,153.5C 210.5,152.167 204.5,152.167 198.5,153.5C 204.08,151.798 209.746,150.465 215.5,149.5C 216.345,148.329 217.011,146.995 217.5,145.5 Z"/></g>
<g><path style="opacity:1" fill="#89b2e2" d="M 36.5,149.5 C 37.871,151.936 38.871,154.603 39.5,157.5C 37.3455,155.383 36.3455,152.716 36.5,149.5 Z"/></g>
<g><path style="opacity:1" fill="#fafbfd" d="M 216.5,153.5 C 216.842,154.338 217.508,154.672 218.5,154.5C 219.795,155.488 221.128,156.488 222.5,157.5C 223.167,158.5 223.833,159.5 224.5,160.5C 225.167,161.833 225.833,163.167 226.5,164.5C 227.412,168.571 227.412,172.571 226.5,176.5C 224.597,176.796 222.93,177.463 221.5,178.5C 217.989,178.899 214.656,179.566 211.5,180.5C 208.273,180.676 205.273,181.343 202.5,182.5C 198.5,182.5 194.5,182.5 190.5,182.5C 190.771,180.62 190.104,179.287 188.5,178.5C 188.5,174.5 188.5,170.5 188.5,166.5C 188.557,165.391 188.89,164.391 189.5,163.5C 190.345,162.329 191.011,160.995 191.5,159.5C 192.5,159.167 193.167,158.5 193.5,157.5C 195.5,156.833 196.833,155.5 197.5,153.5C 197.833,153.5 198.167,153.5 198.5,153.5C 204.5,152.167 210.5,152.167 216.5,153.5 Z"/></g>
<g><path style="opacity:1" fill="#0c30a7" d="M 232.5,152.5 C 232.082,153.222 231.416,153.722 230.5,154C 226.514,154.499 222.514,154.666 218.5,154.5C 218.389,153.883 218.056,153.383 217.5,153C 222.61,151.39 227.61,151.223 232.5,152.5 Z"/></g>
<g><path style="opacity:1" fill="#021e64" d="M 133.5,148.5 C 133.741,150.898 133.074,152.898 131.5,154.5C 131.259,152.102 131.926,150.102 133.5,148.5 Z"/></g>
<g><path style="opacity:1" fill="#6a7fc9" d="M 220.5,141.5 C 222.527,141.338 224.527,141.505 226.5,142C 224.618,142.198 222.952,142.698 221.5,143.5C 220.957,143.56 220.624,143.893 220.5,144.5C 224.33,145.358 227.997,145.024 231.5,143.5C 232.338,143.842 232.672,144.508 232.5,145.5C 228.366,146.485 224.032,146.818 219.5,146.5C 219.5,145.833 219.167,145.5 218.5,145.5C 218.03,144.307 217.03,143.64 215.5,143.5C 206.279,144.378 197.279,146.211 188.5,149C 189.108,149.87 189.941,150.37 191,150.5C 194.447,149.511 197.947,148.844 201.5,148.5C 202.791,148.263 203.791,148.596 204.5,149.5C 201.161,149.89 197.827,150.39 194.5,151C 194.043,151.414 193.709,151.914 193.5,152.5C 194.689,153.429 196.022,153.762 197.5,153.5C 196.833,155.5 195.5,156.833 193.5,157.5C 192.903,156.861 192.07,156.528 191,156.5C 186.322,157.615 181.822,159.115 177.5,161C 178.729,161.781 180.062,162.281 181.5,162.5C 184.851,161.494 188.184,160.494 191.5,159.5C 191.011,160.995 190.345,162.329 189.5,163.5C 189.44,162.957 189.107,162.624 188.5,162.5C 183.48,163.519 183.48,164.853 188.5,166.5C 188.5,170.5 188.5,174.5 188.5,178.5C 187.075,176.969 186.409,177.302 186.5,179.5C 185.833,178.833 185.167,178.167 184.5,177.5C 184.586,176.504 184.252,175.671 183.5,175C 180.539,173.735 177.539,172.569 174.5,171.5C 173.571,172.689 173.238,174.022 173.5,175.5C 175.031,176.925 174.698,177.591 172.5,177.5C 170.167,176.833 167.833,176.167 165.5,175.5C 169.938,176.575 171.938,174.908 171.5,170.5C 168.5,170.5 165.5,170.5 162.5,170.5C 158.516,170.312 154.516,170.646 150.5,171.5C 149.631,173.717 149.298,176.05 149.5,178.5C 152.833,177.833 156.167,177.167 159.5,176.5C 159.5,177.167 159.5,177.833 159.5,178.5C 148.536,179.392 147.869,182.058 157.5,186.5C 158.718,187.161 160.051,187.828 161.5,188.5C 161.376,189.107 161.043,189.44 160.5,189.5C 158.516,189.383 156.85,190.05 155.5,191.5C 159.279,192.226 162.946,193.226 166.5,194.5C 166.5,194.833 166.5,195.167 166.5,195.5C 165.167,195.5 163.833,195.5 162.5,195.5C 156.362,194.632 150.362,193.132 144.5,191C 132.549,182.515 132.549,173.848 144.5,165C 167.768,150.68 193.102,142.846 220.5,141.5 Z"/></g>
<g><path style="opacity:1" fill="#1a38ab" d="M 182.5,149.5 C 184.288,149.215 185.955,149.548 187.5,150.5C 180.608,153.145 173.608,155.645 166.5,158C 164.833,158.667 163.167,158.667 161.5,158C 168.4,154.703 175.4,151.87 182.5,149.5 Z"/></g>
<g><path style="opacity:1" fill="#16369e" d="M 234.5,152.5 C 235.404,153.209 235.737,154.209 235.5,155.5C 234.448,155.649 233.448,155.483 232.5,155C 233.381,154.292 234.047,153.458 234.5,152.5 Z"/></g>
<g><path style="opacity:1" fill="#91b6e3" d="M 110.5,154.5 C 113.298,155.65 115.965,156.983 118.5,158.5C 115.079,158.482 112.412,157.149 110.5,154.5 Z"/></g>
<g><path style="opacity:1" fill="#c6d9f1" d="M 52.5,148.5 C 54.0086,151.678 55.342,155.011 56.5,158.5C 55.5041,158.586 54.6708,158.252 54,157.5C 53.304,154.522 52.804,151.522 52.5,148.5 Z"/></g>
<g><path style="opacity:1" fill="#4a4b4c" d="M 245.5,150.5 C 246.924,152.515 247.59,154.848 247.5,157.5C 246.076,155.485 245.41,153.152 245.5,150.5 Z"/></g>
<g><path style="opacity:1" fill="#1e3bac" d="M 188.5,152.5 C 189.756,152.461 190.756,152.961 191.5,154C 185.172,156.163 178.838,158.33 172.5,160.5C 171.263,160.444 170.263,159.944 169.5,159C 175.708,156.098 182.041,153.932 188.5,152.5 Z"/></g>
<g><path style="opacity:1" fill="#0e33a7" d="M 236.5,157.5 C 235.269,161.734 232.602,164.734 228.5,166.5C 227.662,166.158 227.328,165.492 227.5,164.5C 227.229,158.131 230.229,155.797 236.5,157.5 Z"/></g>
<g><path style="opacity:1" fill="#1737aa" d="M 193.5,157.5 C 193.167,158.5 192.5,159.167 191.5,159.5C 188.184,160.494 184.851,161.494 181.5,162.5C 180.062,162.281 178.729,161.781 177.5,161C 181.822,159.115 186.322,157.615 191,156.5C 192.07,156.528 192.903,156.861 193.5,157.5 Z"/></g>
<g><path style="opacity:1" fill="#2943b0" d="M 224.5,160.5 C 223.833,159.5 223.167,158.5 222.5,157.5C 224.035,156.212 225.701,156.212 227.5,157.5C 226.812,158.855 225.812,159.855 224.5,160.5 Z"/></g>
<g><path style="opacity:1" fill="#b9d1ed" d="M 6.5,154.5 C 8.47249,157.084 9.47249,160.084 9.5,163.5C 7.68964,160.855 6.68964,157.855 6.5,154.5 Z"/></g>
<g><path style="opacity:1" fill="#677cc6" d="M 222.5,149.5 C 225.833,149.5 229.167,149.5 232.5,149.5C 232.833,149.5 233.167,149.5 233.5,149.5C 234.404,150.209 234.737,151.209 234.5,152.5C 234.047,153.458 233.381,154.292 232.5,155C 233.448,155.483 234.448,155.649 235.5,155.5C 236.338,155.842 236.672,156.508 236.5,157.5C 230.229,155.797 227.229,158.131 227.5,164.5C 227.167,164.5 226.833,164.5 226.5,164.5C 225.833,163.167 225.167,161.833 224.5,160.5C 225.812,159.855 226.812,158.855 227.5,157.5C 225.701,156.212 224.035,156.212 222.5,157.5C 221.128,156.488 219.795,155.488 218.5,154.5C 222.514,154.666 226.514,154.499 230.5,154C 231.416,153.722 232.082,153.222 232.5,152.5C 233.043,152.44 233.376,152.107 233.5,151.5C 229.687,150.833 226.021,150.166 222.5,149.5 Z"/></g>
<g><path style="opacity:1" fill="#1033a9" d="M 162.5,161.5 C 164.604,161.201 166.604,161.534 168.5,162.5C 166.376,164.121 164.376,165.954 162.5,168C 159.773,168.818 157.106,168.652 154.5,167.5C 157.196,165.491 159.863,163.491 162.5,161.5 Z"/></g>
<g><path style="opacity:1" fill="#1436aa" d="M 156.5,159.5 C 158.199,159.34 159.866,159.506 161.5,160C 157.282,162.282 153.616,165.282 150.5,169C 148.167,169.667 145.833,169.667 143.5,169C 147.546,165.323 151.879,162.156 156.5,159.5 Z"/></g>
<g><path style="opacity:1" fill="#1134a9" d="M 172.5,162.5 C 179.226,162.674 179.893,164.507 174.5,168C 171.446,168.821 168.446,168.655 165.5,167.5C 167.724,165.566 170.058,163.899 172.5,162.5 Z"/></g>
<g><path style="opacity:1" fill="#1a39ab" d="M 189.5,163.5 C 188.89,164.391 188.557,165.391 188.5,166.5C 183.48,164.853 183.48,163.519 188.5,162.5C 189.107,162.624 189.44,162.957 189.5,163.5 Z"/></g>
<g><path style="opacity:1" fill="#5c6fb8" d="M 236.5,157.5 C 237.482,160.962 237.815,164.629 237.5,168.5C 232.439,170.839 232.439,171.506 237.5,170.5C 237.5,171.5 237.5,172.5 237.5,173.5C 237.167,173.5 236.833,173.5 236.5,173.5C 236.167,173.5 235.833,173.5 235.5,173.5C 233.183,172.058 231.016,172.392 229,174.5C 228.244,172.191 228.744,170.191 230.5,168.5C 229.757,167.818 229.091,167.151 228.5,166.5C 232.602,164.734 235.269,161.734 236.5,157.5 Z"/></g>
<g><path style="opacity:1" fill="#83aee0" d="M 9.5,163.5 C 11.5837,166.053 12.917,169.053 13.5,172.5C 11.4163,169.947 10.083,166.947 9.5,163.5 Z"/></g>
<g><path style="opacity:1" fill="#1134a9" d="M 179.5,165.5 C 185.575,165.527 188.242,168.527 187.5,174.5C 183.526,173.379 179.86,171.546 176.5,169C 177.71,167.961 178.71,166.794 179.5,165.5 Z"/></g>
<g><path style="opacity:1" fill="#1435aa" d="M 234.5,163.5 C 237.047,165.29 236.714,166.956 233.5,168.5C 232.799,166.808 233.133,165.142 234.5,163.5 Z"/></g>
<g><path style="opacity:1" fill="#2341a5" d="M 237.5,168.5 C 237.5,169.167 237.5,169.833 237.5,170.5C 232.439,171.506 232.439,170.839 237.5,168.5 Z"/></g>
<g><path style="opacity:1" fill="#0931a7" d="M 150.5,171.5 C 153.713,171.19 156.713,171.523 159.5,172.5C 159.5,173.833 159.5,175.167 159.5,176.5C 156.167,177.167 152.833,177.833 149.5,178.5C 149.298,176.05 149.631,173.717 150.5,171.5 Z"/></g>
<g><path style="opacity:1" fill="#1435a9" d="M 162.5,170.5 C 165.5,170.5 168.5,170.5 171.5,170.5C 171.938,174.908 169.938,176.575 165.5,175.5C 164.167,175.5 162.833,175.5 161.5,175.5C 161.629,173.784 161.962,172.117 162.5,170.5 Z"/></g>
<g><path style="opacity:1" fill="#1234a9" d="M 184.5,177.5 C 180.985,176.081 177.319,175.414 173.5,175.5C 173.238,174.022 173.571,172.689 174.5,171.5C 177.539,172.569 180.539,173.735 183.5,175C 184.252,175.671 184.586,176.504 184.5,177.5 Z"/></g>
<g><path style="opacity:1" fill="#0931a8" d="M 139.5,172.5 C 142.167,172.5 144.833,172.5 147.5,172.5C 147.768,175.119 147.435,177.619 146.5,180C 143.522,180.696 140.522,181.196 137.5,181.5C 137.207,178.246 137.874,175.246 139.5,172.5 Z"/></g>
<g><path style="opacity:1" fill="#bac9e9" d="M 226.5,164.5 C 226.833,164.5 227.167,164.5 227.5,164.5C 227.328,165.492 227.662,166.158 228.5,166.5C 229.091,167.151 229.757,167.818 230.5,168.5C 228.744,170.191 228.244,172.191 229,174.5C 231.016,172.392 233.183,172.058 235.5,173.5C 234.005,173.989 232.671,174.655 231.5,175.5C 229.883,176.038 228.216,176.371 226.5,176.5C 227.412,172.571 227.412,168.571 226.5,164.5 Z"/></g>
<g><path style="opacity:1" fill="#1a38aa" d="M 235.5,173.5 C 235.833,173.5 236.167,173.5 236.5,173.5C 236.473,175.199 235.806,176.533 234.5,177.5C 232.821,177.715 231.821,177.048 231.5,175.5C 232.671,174.655 234.005,173.989 235.5,173.5 Z"/></g>
<g><path style="opacity:1" fill="#6f84cb" d="M 231.5,175.5 C 231.821,177.048 232.821,177.715 234.5,177.5C 235.404,178.209 235.737,179.209 235.5,180.5C 234.735,180.077 233.902,179.743 233,179.5C 225.442,182.512 217.608,184.178 209.5,184.5C 210.167,183.833 210.833,183.167 211.5,182.5C 217.632,181.8 223.632,180.467 229.5,178.5C 228.833,178.167 228.167,177.833 227.5,177.5C 225.547,178.156 223.547,178.489 221.5,178.5C 222.93,177.463 224.597,176.796 226.5,176.5C 228.216,176.371 229.883,176.038 231.5,175.5 Z"/></g>
<g><path style="opacity:1" fill="#8fa2d8" d="M 159.5,172.5 C 160.306,173.997 160.972,175.664 161.5,177.5C 161.376,178.107 161.043,178.44 160.5,178.5C 160.167,178.5 159.833,178.5 159.5,178.5C 159.5,177.833 159.5,177.167 159.5,176.5C 159.5,175.167 159.5,173.833 159.5,172.5 Z"/></g>
<g><path style="opacity:1" fill="#2342af" d="M 188.5,178.5 C 188.591,180.698 187.925,181.031 186.5,179.5C 186.409,177.302 187.075,176.969 188.5,178.5 Z"/></g>
<g><path style="opacity:1" fill="#3d4e7d" d="M 236.5,173.5 C 236.833,173.5 237.167,173.5 237.5,173.5C 237.662,175.527 237.495,177.527 237,179.5C 236.617,180.056 236.117,180.389 235.5,180.5C 235.737,179.209 235.404,178.209 234.5,177.5C 235.806,176.533 236.473,175.199 236.5,173.5 Z"/></g>
<g><path style="opacity:1" fill="#0f34a9" d="M 159.5,178.5 C 159.833,178.5 160.167,178.5 160.5,178.5C 161.203,180.716 162.536,182.549 164.5,184C 162.559,185.903 160.226,186.736 157.5,186.5C 147.869,182.058 148.536,179.392 159.5,178.5 Z"/></g>
<g><path style="opacity:1" fill="#5b73c4" d="M 150.5,171.5 C 154.516,170.646 158.516,170.312 162.5,170.5C 161.962,172.117 161.629,173.784 161.5,175.5C 162.833,175.5 164.167,175.5 165.5,175.5C 167.833,176.167 170.167,176.833 172.5,177.5C 174.698,177.591 175.031,176.925 173.5,175.5C 177.319,175.414 180.985,176.081 184.5,177.5C 183.402,178.397 183.402,179.23 184.5,180C 181.5,180.333 178.5,180.667 175.5,181C 177.382,181.198 179.048,181.698 180.5,182.5C 177.171,182.215 174.171,182.882 171.5,184.5C 168.988,182.821 166.988,183.155 165.5,185.5C 164.942,186.79 163.942,187.623 162.5,188C 164.937,189.375 167.603,189.875 170.5,189.5C 170.842,190.338 171.508,190.672 172.5,190.5C 174.698,191.165 177.031,191.832 179.5,192.5C 179.376,193.107 179.043,193.44 178.5,193.5C 172.316,193.057 166.316,191.724 160.5,189.5C 161.043,189.44 161.376,189.107 161.5,188.5C 160.051,187.828 158.718,187.161 157.5,186.5C 160.226,186.736 162.559,185.903 164.5,184C 162.536,182.549 161.203,180.716 160.5,178.5C 161.043,178.44 161.376,178.107 161.5,177.5C 160.972,175.664 160.306,173.997 159.5,172.5C 156.713,171.523 153.713,171.19 150.5,171.5 Z"/></g>
<g><path style="opacity:1" fill="#1334aa" d="M 175.5,178.5 C 175.735,177.903 176.235,177.57 177,177.5C 178.5,178 180,178.5 181.5,179C 179.402,179.678 177.402,179.511 175.5,178.5 Z"/></g>
<g><path style="opacity:1" fill="#0930a7" d="M 172.5,177.5 C 172.953,178.458 173.619,179.292 174.5,180C 169.85,183.832 165.85,183.332 162.5,178.5C 165.768,177.513 169.102,177.18 172.5,177.5 Z"/></g>
<g><path style="opacity:1" fill="#a7b7e1" d="M 184.5,177.5 C 185.167,178.167 185.833,178.833 186.5,179.5C 187.925,181.031 188.591,180.698 188.5,178.5C 190.104,179.287 190.771,180.62 190.5,182.5C 190.5,182.833 190.5,183.167 190.5,183.5C 187.904,182.735 185.237,182.401 182.5,182.5C 181.833,182.5 181.167,182.5 180.5,182.5C 179.048,181.698 177.382,181.198 175.5,181C 178.5,180.667 181.5,180.333 184.5,180C 183.402,179.23 183.402,178.397 184.5,177.5 Z"/></g>
<g><path style="opacity:1" fill="#2b41af" d="M 211.5,182.5 C 210.761,182.631 210.094,182.464 209.5,182C 210.416,181.722 211.082,181.222 211.5,180.5C 214.656,179.566 217.989,178.899 221.5,178.5C 223.547,178.489 225.547,178.156 227.5,177.5C 228.167,177.833 228.833,178.167 229.5,178.5C 223.632,180.467 217.632,181.8 211.5,182.5 Z"/></g>
<g><path style="opacity:1" fill="#0d33a8" d="M 144.5,182.5 C 148.556,183.503 152.222,185.503 155.5,188.5C 151.48,191.118 147.48,190.951 143.5,188C 137.998,185.101 138.332,183.268 144.5,182.5 Z"/></g>
<g><path style="opacity:1" fill="#1234a9" d="M 180.5,182.5 C 181.167,182.5 181.833,182.5 182.5,182.5C 183.952,183.302 185.618,183.802 187.5,184C 187.167,184.333 186.833,184.667 186.5,185C 181.463,185.663 176.463,185.496 171.5,184.5C 174.171,182.882 177.171,182.215 180.5,182.5 Z"/></g>
<g><path style="opacity:1" fill="#3e56b8" d="M 211.5,180.5 C 211.082,181.222 210.416,181.722 209.5,182C 210.094,182.464 210.761,182.631 211.5,182.5C 210.833,183.167 210.167,183.833 209.5,184.5C 208.167,184.5 206.833,184.5 205.5,184.5C 205.918,183.778 206.584,183.278 207.5,183C 205.866,182.506 204.199,182.34 202.5,182.5C 205.273,181.343 208.273,180.676 211.5,180.5 Z"/></g>
<g><path style="opacity:1" fill="#2640ae" d="M 190.5,182.5 C 194.5,182.5 198.5,182.5 202.5,182.5C 204.199,182.34 205.866,182.506 207.5,183C 206.584,183.278 205.918,183.778 205.5,184.5C 200.151,184.855 194.818,185.022 189.5,185C 190.056,184.617 190.389,184.117 190.5,183.5C 190.5,183.167 190.5,182.833 190.5,182.5 Z"/></g>
<g><path style="opacity:1" fill="#7387cd" d="M 182.5,182.5 C 185.237,182.401 187.904,182.735 190.5,183.5C 190.389,184.117 190.056,184.617 189.5,185C 194.818,185.022 200.151,184.855 205.5,184.5C 206.833,184.5 208.167,184.5 209.5,184.5C 201.943,186.545 194.276,187.879 186.5,188.5C 185.624,188.369 184.957,188.702 184.5,189.5C 185.729,190.281 187.062,190.781 188.5,191C 186.292,191.191 184.292,191.691 182.5,192.5C 181.711,192.783 181.044,193.283 180.5,194C 185.885,194.733 191.218,194.567 196.5,193.5C 199.385,193.194 202.052,193.527 204.5,194.5C 203.5,194.5 202.5,194.5 201.5,194.5C 189.86,195.388 178.193,195.721 166.5,195.5C 166.5,195.167 166.5,194.833 166.5,194.5C 170.702,194.817 174.702,194.483 178.5,193.5C 179.043,193.44 179.376,193.107 179.5,192.5C 177.031,191.832 174.698,191.165 172.5,190.5C 175.85,190.665 179.183,190.498 182.5,190C 182.957,189.586 183.291,189.086 183.5,188.5C 182.311,187.571 180.978,187.238 179.5,187.5C 174.778,187.152 170.111,186.485 165.5,185.5C 166.988,183.155 168.988,182.821 171.5,184.5C 176.463,185.496 181.463,185.663 186.5,185C 186.833,184.667 187.167,184.333 187.5,184C 185.618,183.802 183.952,183.302 182.5,182.5 Z"/></g>
<g><path style="opacity:1" fill="#1234a9" d="M 165.5,185.5 C 170.111,186.485 174.778,187.152 179.5,187.5C 179.918,188.222 180.584,188.722 181.5,189C 177.848,189.499 174.182,189.665 170.5,189.5C 167.603,189.875 164.937,189.375 162.5,188C 163.942,187.623 164.942,186.79 165.5,185.5 Z"/></g>
<g><path style="opacity:1" fill="#1a38ab" d="M 235.5,180.5 C 235.5,180.833 235.5,181.167 235.5,181.5C 221.431,185.447 207.097,188.114 192.5,189.5C 190.265,189.795 188.265,189.461 186.5,188.5C 194.276,187.879 201.943,186.545 209.5,184.5C 217.608,184.178 225.442,182.512 233,179.5C 233.902,179.743 234.735,180.077 235.5,180.5 Z"/></g>
<g><path style="opacity:1" fill="#1938ab" d="M 234.5,184.5 C 234.5,185.167 234.5,185.833 234.5,186.5C 221.812,189.28 209.145,191.613 196.5,193.5C 191.218,194.567 185.885,194.733 180.5,194C 181.044,193.283 181.711,192.783 182.5,192.5C 188.084,192.745 193.417,192.078 198.5,190.5C 210.682,189.396 222.682,187.396 234.5,184.5 Z"/></g>
<g><path style="opacity:1" fill="#858687" d="M 247.5,181.5 C 247.741,183.898 247.074,185.898 245.5,187.5C 245.259,185.102 245.926,183.102 247.5,181.5 Z"/></g>
<g><path style="opacity:1" fill="#334fb5" d="M 179.5,187.5 C 180.978,187.238 182.311,187.571 183.5,188.5C 183.291,189.086 182.957,189.586 182.5,190C 179.183,190.498 175.85,190.665 172.5,190.5C 171.508,190.672 170.842,190.338 170.5,189.5C 174.182,189.665 177.848,189.499 181.5,189C 180.584,188.722 179.918,188.222 179.5,187.5 Z"/></g>
<g><path style="opacity:1" fill="#657bc7" d="M 235.5,181.5 C 235.443,182.609 235.11,183.609 234.5,184.5C 222.682,187.396 210.682,189.396 198.5,190.5C 196.265,190.795 194.265,190.461 192.5,189.5C 207.097,188.114 221.431,185.447 235.5,181.5 Z"/></g>
<g><path style="opacity:1" fill="#1737aa" d="M 160.5,189.5 C 166.316,191.724 172.316,193.057 178.5,193.5C 174.702,194.483 170.702,194.817 166.5,194.5C 162.946,193.226 159.279,192.226 155.5,191.5C 156.85,190.05 158.516,189.383 160.5,189.5 Z"/></g>
<g><path style="opacity:1" fill="#4660bc" d="M 186.5,188.5 C 188.265,189.461 190.265,189.795 192.5,189.5C 194.265,190.461 196.265,190.795 198.5,190.5C 193.417,192.078 188.084,192.745 182.5,192.5C 184.292,191.691 186.292,191.191 188.5,191C 187.062,190.781 185.729,190.281 184.5,189.5C 184.957,188.702 185.624,188.369 186.5,188.5 Z"/></g>
<g><path style="opacity:1" fill="#8db5e2" d="M 85.5,190.5 C 87.0269,190.427 88.0269,191.094 88.5,192.5C 86.9731,192.573 85.9731,191.906 85.5,190.5 Z"/></g>
<g><path style="opacity:1" fill="#5a71c3" d="M 234.5,186.5 C 234.167,187.167 233.833,187.833 233.5,188.5C 224.068,191.513 214.401,193.513 204.5,194.5C 202.052,193.527 199.385,193.194 196.5,193.5C 209.145,191.613 221.812,189.28 234.5,186.5 Z"/></g>
<g><path style="opacity:1" fill="#2d4ab3" d="M 201.5,194.5 C 201.082,195.222 200.416,195.722 199.5,196C 186.993,196.827 174.66,196.66 162.5,195.5C 163.833,195.5 165.167,195.5 166.5,195.5C 178.193,195.721 189.86,195.388 201.5,194.5 Z"/></g>
<g><path style="opacity:1" fill="#164477" d="M 125.5,197.5 C 127.199,199.566 128.532,201.9 129.5,204.5C 127.058,202.879 125.725,200.546 125.5,197.5 Z"/></g>
<g><path style="opacity:1" fill="#bfbfc0" d="M 243.5,194.5 C 243.082,198.349 241.415,201.349 238.5,203.5C 239.41,200.008 241.076,197.008 243.5,194.5 Z"/></g>
<g><path style="opacity:1" fill="#a0a0a0" d="M 238.5,203.5 C 238.573,205.027 237.906,206.027 236.5,206.5C 236.427,204.973 237.094,203.973 238.5,203.5 Z"/></g>
<g><path style="opacity:1" fill="#011852" d="M 157.5,215.5 C 159.027,215.427 160.027,216.094 160.5,217.5C 158.973,217.573 157.973,216.906 157.5,215.5 Z"/></g>
<g><path style="opacity:1" fill="#021645" d="M 207.5,216.5 C 207.027,217.906 206.027,218.573 204.5,218.5C 204.973,217.094 205.973,216.427 207.5,216.5 Z"/></g>
<g><path style="opacity:1" fill="#022379" d="M 160.5,217.5 C 165.365,217.592 169.699,218.925 173.5,221.5C 168.84,220.991 164.507,219.658 160.5,217.5 Z"/></g>
<g><path style="opacity:1" fill="#a2a3a3" d="M 214.5,225.5 C 213.514,227.408 211.848,228.408 209.5,228.5C 210.659,226.75 212.326,225.75 214.5,225.5 Z"/></g>
<g><path style="opacity:1" fill="#a2a3a4" d="M 203.5,230.5 C 201.485,231.924 199.152,232.59 196.5,232.5C 198.515,231.076 200.848,230.41 203.5,230.5 Z"/></g>
<g><path style="opacity:1" fill="#a0c1e7" d="M 73.5,234.5 C 75.9674,234.755 77.9674,235.755 79.5,237.5C 77.0326,237.245 75.0326,236.245 73.5,234.5 Z"/></g>
<g><path style="opacity:1" fill="#a1c1e7" d="M 174.5,234.5 C 171.947,236.584 168.947,237.917 165.5,238.5C 168.053,236.416 171.053,235.083 174.5,234.5 Z"/></g>
<g><path style="opacity:1" fill="#9ec0e6" d="M 92.5,241.5 C 95.1522,241.41 97.4855,242.076 99.5,243.5C 96.8478,243.59 94.5145,242.924 92.5,241.5 Z"/></g>
<g><path style="opacity:1" fill="#abc8ea" d="M 158.5,240.5 C 155.984,242.323 152.984,243.323 149.5,243.5C 148.833,243.5 148.167,243.5 147.5,243.5C 150.854,241.742 154.521,240.742 158.5,240.5 Z"/></g>
<g><path style="opacity:1" fill="#6fa1db" d="M 101.5,243.5 C 113.148,244.302 124.815,244.635 136.5,244.5C 128.35,245.493 120.017,245.826 111.5,245.5C 107.96,245.247 104.627,244.581 101.5,243.5 Z"/></g>
<g><path style="opacity:1" fill="#d6e4f5" d="M 147.5,243.5 C 148.167,243.5 148.833,243.5 149.5,243.5C 146.372,244.632 143.038,245.465 139.5,246C 129.991,246.824 120.657,246.658 111.5,245.5C 120.017,245.826 128.35,245.493 136.5,244.5C 140.154,244.058 143.821,243.724 147.5,243.5 Z"/></g>
</svg>
