<svg width="462" height="463" viewBox="0 0 462 463" fill="none" xmlns="http://www.w3.org/2000/svg">
<path d="M230.8 0.900024C358.2 0.900024 461.5 104.2 461.5 231.6C461.5 359 358.2 462.3 230.8 462.3C103.4 462.3 0.100006 359 0.100006 231.6C0.100006 104.2 103.4 0.900024 230.8 0.900024ZM351.9 173.9H234.5V259.3H282.8V340C282.8 347.6 279.8 351.5 273.7 351.5C266.5 351.4 259.4 350.9 252.2 349.9L256.4 370.1H281C296.1 370.1 304.1 361.7 304.1 345.1V259.2H352V173.9H351.9ZM107.5 303.5C106.3 323.2 102.2 342.7 95.1 361.2L111.7 366.3C118.4 346.7 122.5 326.2 123.8 305.5L107.5 303.5ZM148.6 304.4L134.1 306.2C135.6 319.4 136.5 338.4 137.2 362.8L152.9 361C152.6 342 151.2 323.2 148.6 304.4ZM243.5 279.1C235.2 303.8 224.1 327.4 210.3 349.5L226.6 361C241 337.9 252.6 313.1 261.2 287.2L243.5 279.1ZM175.2 302.2L160.1 304C165.8 321.6 168.9 340 169.4 358.5L185.1 356.7C184.1 338.2 180.8 320 175.1 302.4V302.2H175.2ZM334.6 277.7L318.5 287.5C331.6 309.6 343.2 332.5 353.1 356.1L369.2 345C359.2 321.9 347.6 299.4 334.6 277.7ZM203 299.3L188.8 303.5C193.7 315.7 197.9 328.2 201.5 340.8L216.3 337.2C212.7 324.3 208.3 311.6 203 299.3ZM134.7 93.7C127 120.8 112.4 145.5 92.4 165.3L97 186.7C100.9 183.1 104.8 179.4 108.5 175.6V292H207.8V167.2H177.2C184.5 156.2 190.9 144.7 196.3 132.6V118.2H146.5C149.2 112.4 151.6 106.1 154.1 99.9L134.7 93.7ZM189.1 237.9V273.7H167V238.2L189.1 237.9ZM149.5 237.9V273.7H127V238.2L149.5 237.9ZM331.5 192.8V240H255V193.1L331.5 192.8ZM149.5 184.9V220.7H127V184.9H149.5V184.9ZM189.1 184.9V220.7H167V184.9H189.1V184.9ZM176.2 135.3C170.3 146.3 163.7 157 156.5 167.2H116.1C124.3 157.2 131.7 146.5 138.1 135.3H176.2ZM294.3 93.2L273.5 96.8C277 105.8 280.8 116.2 284.1 127.2H218.5V146.8H366.6V127.2H304.7C301.2 114.5 297.9 103.4 294.3 93.2Z" fill="#E53935"/>
</svg>
