<svg xmlns="http://www.w3.org/2000/svg" viewBox="0 0 100 100">
      <defs>
        <radialGradient
          cx="50%"
          cy="119.46%"
          fx="50%"
          fy="119.46%"
          r="121.762%"
          gradient-transform="matrix(-.02518 -.90082 1.0122 -.02297 -.697 1.672)"
          id="usk_b">
          <stop stop-color="#1E89DD" offset="0%" />
          <stop stop-color="#60FBD0" offset="100%" />
        </radialGradient>
        <linearGradient
          x1="97.931%"
          y1="2.069%"
          x2="4.147%"
          y2="95.853%"
          id="usk_a">
          <stop stop-color="#282A2D" offset="0%" />
          <stop stop-color="#354252" offset="100%" />
        </linearGradient>
      </defs>
      <g fill="none" fill-rule="evenodd">
        <circle fill="url(#usk_a)" cx="50" cy="50" r="50" />
        <path
          d="M43.48 51.345V79.274c0 .715-.001.717-.725.717h-7.698c-.596 0-.615-.02-.615-.615l-.001-16.971c0-.68-.033-.702-.688-.56a54.882 54.882 0 0 1-11.234 1.23c-.413.002-.52-.14-.518-.533.013-2.653.013-5.307 0-7.96-.002-.392.113-.54.52-.545 4.042-.039 8.027-.553 11.908-1.681 2.024-.588 3.987-1.386 5.976-2.093.129-.046.244-.13.462-.25-.232-.129-.369-.222-.517-.286a46.082 46.082 0 0 0-9.764-2.961 49.1 49.1 0 0 0-8.037-.798c-.418-.008-.551-.133-.549-.553.015-2.653.014-5.307.002-7.96-.002-.395.125-.546.529-.536 2.537.063 5.068.205 7.577.606 1.308.209 2.61.46 3.91.706.357.067.428-.084.426-.395-.007-1.793-.003-3.587-.003-5.38v-11.81c0-.632.003-.634.632-.634h7.83c.573 0 .576.003.576.591 0 6.678.005 13.355-.01 20.033 0 .434.153.63.535.815 1.9.922 3.79 1.868 5.665 2.838.363.188.6.2.928-.06 7.817-6.186 13.17-14.043 16.015-23.599.143-.48.347-.634.844-.63 2.682.025 5.365.011 8.048.013.583 0 .637.068.497.632-2.855 11.48-8.751 21.105-17.642 28.901-.528.463-.53.461.009.932 7.671 6.702 13.157 14.868 16.378 24.538.478 1.436.847 2.909 1.254 4.368.147.529.076.606-.489.606-2.726.002-5.452-.007-8.179.01-.417.002-.58-.158-.695-.539-3.754-12.369-11.303-21.672-22.596-27.946a3.499 3.499 0 0 0-.354-.167c-.037-.015-.085-.003-.208-.003"
          fill="url(#usk_b)"
          fill-rule="nonzero"
        />
    </g>
</svg>