<svg width="24" height="24" viewBox="0 0 24 24" fill="none" xmlns="http://www.w3.org/2000/svg">
<path d="M17 20V22H20.5C20.89 22 21.24 21.84 21.54 21.54C21.84 21.24 22 20.89 22 20.5V17H20V20H17Z" fill="#999999"/>
<path d="M3.5 22H7V20H4V17H2V20.5C2 20.89 2.16 21.24 2.46 21.54C2.76 21.84 3.11 22 3.5 22Z" fill="#999999"/>
<path d="M20.5 2H17V4H20V7H22V3.5C22 3.11 21.84 2.76 21.54 2.46C21.24 2.16 20.89 2 20.5 2Z" fill="#999999"/>
<path d="M7 4V2H3.5C3.11 2 2.76 2.16 2.46 2.46C2.16 2.76 2 3.11 2 3.5V7H4V4H7Z" fill="#999999"/>
<path d="M17.8753 16V16.5558C17.8753 16.9058 17.7363 17.2414 17.4888 17.4888C17.2414 17.7363 16.9058 17.8753 16.5558 17.8753H7.31948C6.96953 17.8753 6.63392 17.7363 6.38647 17.4888C6.13902 17.2414 6 16.9058 6 16.5558V7.31948C6 6.96953 6.13902 6.63392 6.38647 6.38647C6.63392 6.13902 6.96953 6 7.31948 6H16.5558C16.9058 6 17.2414 6.13902 17.4888 6.38647C17.7363 6.63392 17.8753 6.96953 17.8753 7.31948V8H11.8195C11.4695 8 11.1339 8.11823 10.8865 8.36568C10.639 8.61313 10.5 8.94875 10.5 9.29869V14.5766C10.5 14.9265 10.639 15.2622 10.8865 15.5096C11.1339 15.7571 11.4695 16 11.8195 16H17.8753Z" fill="#999999"/>
<path fill-rule="evenodd" clip-rule="evenodd" d="M12 14.5H19V9.5H12V14.5ZM16 12C16 12.5523 15.5523 13 15 13C14.4477 13 14 12.5523 14 12C14 11.4477 14.4477 11 15 11C15.5523 11 16 11.4477 16 12Z" fill="#999999"/>
</svg>
