<?xml version="1.0" encoding="UTF-8" standalone="no"?>
<!DOCTYPE svg PUBLIC "-//W3C//DTD SVG 1.1//EN" "http://www.w3.org/Graphics/SVG/1.1/DTD/svg11.dtd">
<svg width="100%" height="100%" viewBox="0 0 32 32" version="1.1" xmlns="http://www.w3.org/2000/svg" xmlns:xlink="http://www.w3.org/1999/xlink" xml:space="preserve" xmlns:serif="http://www.serif.com/" style="fill-rule:evenodd;clip-rule:evenodd;stroke-linejoin:round;stroke-miterlimit:2;">
    <g transform="matrix(1.7897,0,0,1.7897,16,16)">
        <g transform="matrix(1,0,0,1,-8,-8)">
            <clipPath id="_clip1">
                <rect x="0" y="0" width="16" height="16"/>
            </clipPath>
            <g clip-path="url(#_clip1)">
                <path d="M12.725,4.927C10.131,2.339 5.869,2.339 3.275,4.927L2.931,5.272C2.869,5.334 2.833,5.419 2.833,5.507C2.833,5.596 2.869,5.681 2.931,5.743L4.005,6.816C4.07,6.881 4.176,6.881 4.241,6.816L4.704,6.354C6.513,4.548 9.487,4.548 11.296,6.354L11.728,6.785C11.793,6.85 11.899,6.85 11.964,6.785L13.039,5.713C13.102,5.651 13.137,5.566 13.137,5.477C13.137,5.388 13.102,5.303 13.039,5.241L12.725,4.927ZM15.902,8.1L14.946,7.145C14.816,7.016 14.604,7.016 14.474,7.145L11.414,10.2C11.382,10.232 11.328,10.232 11.296,10.2L8.236,7.145C8.106,7.016 7.894,7.016 7.764,7.145L4.704,10.2C4.672,10.232 4.618,10.232 4.586,10.2L1.526,7.145C1.396,7.016 1.184,7.016 1.054,7.145L0.098,8.1C0.035,8.162 -0,8.247 -0,8.336C-0,8.425 0.035,8.51 0.098,8.572L4.408,12.876C4.539,13.006 4.751,13.006 4.881,12.876L7.941,9.821C7.973,9.789 8.027,9.789 8.059,9.821L11.119,12.876C11.249,13.006 11.461,13.006 11.591,12.876L15.902,8.572C15.965,8.51 16,8.425 16,8.336C16,8.247 15.965,8.162 15.902,8.1Z" style="fill:rgb(59,153,252);fill-rule:nonzero;"/>
            </g>
        </g>
    </g>
</svg>
