<svg xmlns="http://www.w3.org/2000/svg" viewBox="0 0 80 80">
  <defs>
    <linearGradient id="a71b98ca-bb7d-4839-8442-72c2914acfa9" x1="14.483" x2="65.683" y1="78.362" y2="5.402" gradientTransform="matrix(1 0 0 -1 0 82)" gradientUnits="userSpaceOnUse">
      <stop offset="0" stop-color="#fcecb2"/>
      <stop offset=".26" stop-color="#ff8b89"/>
      <stop offset=".52" stop-color="#fc8adc"/>
      <stop offset=".76" stop-color="#7954ff"/>
      <stop offset="1" stop-color="#70bcff"/>
    </linearGradient>
  </defs>
  <path fill="url(#a71b98ca-bb7d-4839-8442-72c2914acfa9)" d="M40 0a40 40 0 1 0 40 40A39.989 39.989 0 0 0 40 0ZM15.6 60.7C7.5 35.2 4 50.6 4 40a35.9 35.9 0 0 1 15.6-29.7c.7-.5 1.5.4 1.2 1.1A21.754 21.754 0 0 0 19 20a21.052 21.052 0 0 0 11 18.5c5.2 2.8 11 6.2 10.7 12.1-.3 6.2-2.8 12.5-8.6 15.9a21.359 21.359 0 0 1-6.4 2.3c-4.8.7-8.6-3.4-10.1-8.1Zm54.5-9.9C52 70.6 67.2 65.9 58 71.2a36.1 36.1 0 0 1-33.5 1.3.842.842 0 0 1-.4-.7.817.817 0 0 1 .8-.9 20.809 20.809 0 0 0 8.3-2.7 21.1 21.1 0 0 0 10.5-18.8c-.2-5.9-.1-12.7 5.2-15.3 5.5-2.8 12.3-3.8 18-.5a22.08 22.08 0 0 1 5.2 4.4c3.1 3.8 1.3 9.1-2 12.8Zm4.2-13.1a20.944 20.944 0 0 0-28-5.5c-5 3.1-10.9 6.4-15.9 3.2C25.2 32 21 26.6 21 20a19.01 19.01 0 0 1 1.3-6.7c1.7-4.7 7.2-5.8 12-4.8 26.1 5.7 14.5-5 23.7.3a35.777 35.777 0 0 1 17.9 28.4.755.755 0 0 1-.4.7.925.925 0 0 1-1.2-.2Z"/>
</svg>
