<svg xmlns="http://www.w3.org/2000/svg" viewBox="0 0 80 80">
  <path fill="#45277A" d="M40 79.6c21.87 0 39.6-17.73 39.6-39.6S61.87.17 40 .17.4 18.13.4 40C.4 61.87 18.13 79.6 40 79.6Z"/>
  <path fill="#FFF" d="M40 0c22.1 0 40 17.9 40 40S62.1 80 40 80 0 62.1 0 40 17.9 0 40 0Zm0 1C18.5 1 1 18.5 1 40s17.5 39 39 39 39-17.5 39-39S61.5 1 40 1Zm13.8 50.9c.7-2.6 3.2-4.3 5.9-3.8 2.5.4 4.3 2.6 4.3 5.1a5.162 5.162 0 0 1-4.978 5.195l-.222.005h-.3c-2.1-.1-3.9-1.5-4.6-3.5-.2-.6-.3-1.1-.3-1.7 0-.4.1-.9.2-1.3Zm-33.9-3.7c2.7-.7 5.6.9 6.3 3.7.086.343.171.76.194 1.249l.006.251v.3l-.06.24-.08.52-.06.24-.1.3v-.1l-.1.2c-.6 1.5-1.9 2.7-3.5 3.1-2.7.7-5.6-.9-6.3-3.7-.7-2.7.9-5.6 3.7-6.3Zm1.3 2.6c-1.4 0-2.5 1.1-2.5 2.5s1.1 2.5 2.5 2.5 2.5-1.1 2.5-2.5-1.1-2.5-2.5-2.5Zm37.8-.1h-.4c-1.2.1-2.2 1.1-2.3 2.3-.1 1.4.9 2.6 2.3 2.7 1.4.1 2.6-.9 2.7-2.3.096-1.344-.822-2.504-2.134-2.683L59 50.7Zm-6.4 1.2-.1.3c-.1.3-.1.7-.1 1 0 .514.073 1.029.22 1.48l.08.22-25.4-.1.1-.3c.1-.4.2-.9.2-1.3 0-.32-.064-.704-.14-1.05l-.06-.25h25.2ZM35.9 25.5l.3.3c.16.16.384.32.62.48l.18.12c.343.257.833.44 1.28.551l.22.049-12.7 22-.2-.2a4.277 4.277 0 0 0-2.057-1.338L23.3 47.4l12.6-21.9Zm8.4 0 12.6 21.9-.3.1c-.3.1-.6.2-.9.4-.429.171-.784.49-1.128.83l-.172.17-12.7-22 .3-.1c.5-.1.9-.3 1.3-.5.24-.16.544-.384.81-.62l.19-.18ZM40 15.4c2.9 0 5.2 2.4 5.2 5.2 0 2.9-2.3 5.2-5.2 5.2-2.9 0-5.2-2.3-5.2-5.2 0-2.9 2.3-5.2 5.2-5.2Zm2.3 4.3c-.5-1.3-2-1.9-3.3-1.4-.9.4-1.5 1.3-1.6 2.4 0 1.4 1.1 2.5 2.5 2.5.4 0 .7-.1 1-.2 1.3-.5 1.9-2 1.4-3.3Z"/>
</svg>
