<svg xmlns="http://www.w3.org/2000/svg" viewBox="0 0 80 80">
  <path fill="#45277a" d="M40 0A40 40 0 1 1 0 40 40 40 0 0 1 40 0Zm19.689 45.809a5.162 5.162 0 0 0-6.076 5.138 5.106 5.106 0 0 0 .28 1.68 5.2 5.2 0 0 0 4.631 3.5l.276.008a5.2 5.2 0 0 0 .889-10.324ZM26.213 49.6a5.187 5.187 0 1 0-.184 3.223l.091-.25v.052l.1-.329a5.153 5.153 0 0 0 .16-1.017l.008-.346a5.661 5.661 0 0 0-.175-1.333ZM21.2 48.467a2.533 2.533 0 1 1-.027 5.066 2.533 2.533 0 1 1 .027-5.066Zm37.6-.054.2.008a2.534 2.534 0 1 1-.394 0Zm-6.213 1.2H27.4a5.61 5.61 0 0 1 .173 1.334 5.116 5.116 0 0 1-.17 1.309l-.1.317 25.4.054a5.033 5.033 0 0 1-.28-1.68 5.2 5.2 0 0 1 .086-1ZM35.92 23.24l-12.6 21.827a5.19 5.19 0 0 1 2.291 1.352l.229.248 12.693-22.014a4.874 4.874 0 0 1-1.546-.586 4.706 4.706 0 0 1-.823-.592Zm8.387-.027A4.882 4.882 0 0 1 43.28 24a5.319 5.319 0 0 1-1.275.544l-.338.083L54.32 46.613a5.179 5.179 0 0 1 1.333-1.04 4.98 4.98 0 0 1 .918-.421l.322-.1ZM40 13.147a5.2 5.2 0 1 0 0 10.4 5.2 5.2 0 0 0 0-10.4Zm-.953 2.845a2.533 2.533 0 1 1-1.567 2.355v-.014a2.533 2.533 0 0 1 1.567-2.341Z"/>
</svg>
